<svg id="Layer_1" data-name="Layer 1" xmlns="http://www.w3.org/2000/svg" viewBox="0 0 158.32 508.15"><defs><style>.cls-1{stroke:#000;stroke-miterlimit:10;}</style></defs><title>chicken1betterlineweight</title><path class="cls-1" d="M432,381.63a3.81,3.81,0,0,1-.05-2.86c0-.27-.33-.63-.15-1.21l.46-.68a1.38,1.38,0,0,1-.14-.42,4.88,4.88,0,0,0-.07-1.74,2.88,2.88,0,0,1,0-1.67c.19-.69-.32-1.39.12-2-.38-.58,0-1.3-.36-1.91a2.37,2.37,0,0,1-.11-1.1,5.91,5.91,0,0,0-.44-2.56c0-.22.15-.43.09-.58a2.23,2.23,0,0,1-.21-.95c0-.52-.33-1-.28-1.5a8.3,8.3,0,0,0,0-1.41,2.47,2.47,0,0,0-.12-.82,2.06,2.06,0,0,1-.13-1c.08-1.09-.31-2.13-.3-3.2a.65.65,0,0,0-.08-.27,1.54,1.54,0,0,1,.06-1.51c-.07-.14-.22-.32-.21-.48a18.81,18.81,0,0,0-.34-2.9,7.39,7.39,0,0,0-.51-2.44,2.8,2.8,0,0,1-.25-.93,2.63,2.63,0,0,0,0-.79,4.05,4.05,0,0,1-.38-1.62,1.19,1.19,0,0,0-.28-.78,10.11,10.11,0,0,1-1.11-2.38,7.64,7.64,0,0,0-.5-.86,1.23,1.23,0,0,1,.16-1l-.46-1v-1.18a.34.34,0,0,1,.37-.18c.52,1.33,1.05,2.67,1.58,4a1.64,1.64,0,0,0,.14.39,3.76,3.76,0,0,1,.77,2.19l.58.17a2.82,2.82,0,0,1,.71,1.64c.16.77.3,1.55.5,2.31-.22.85.28,1.59.39,2.42l-.25.65a13.83,13.83,0,0,1,.56,4.11,4.2,4.2,0,0,0,.2,2.22c-.35.87.34,1.68.16,2.55-.09.42.25.78.21,1.22a2.25,2.25,0,0,0,.17,1.25,1.4,1.4,0,0,1,.1.54,15.57,15.57,0,0,0,.46,2.88,6,6,0,0,1,.1,1.4,5,5,0,0,0,.5,2.6,5.67,5.67,0,0,0-.23,1.2,13.13,13.13,0,0,0,.24,2.93,4.79,4.79,0,0,1,0,1.26,7,7,0,0,0,.24,2.36,1.38,1.38,0,0,1-.1,1.1,1,1,0,0,0,0,1c.25.47,0,.91,0,1.34a28.47,28.47,0,0,0,0,4.33.34.34,0,0,0,.11.07c.23.07.33-.12.47-.22.3-.46.07-1,.3-1.51a4.35,4.35,0,0,0,.19-1.38c.07-.13.2-.15.38-.1,0,.1.13.25.09.36a3.35,3.35,0,0,0-.25,1.5c.05.44-.35.75-.3,1.21a1.6,1.6,0,0,1-.21,1.22.3.3,0,0,0,0,.27c.29.59-.12,1.18,0,1.77a2.2,2.2,0,0,1-.24,1.19l.2.54a5.58,5.58,0,0,0-.55,2.44,8.92,8.92,0,0,0-.28,2.77,15,15,0,0,1-.6,2.57,3.56,3.56,0,0,0-.18.52,9.48,9.48,0,0,0,0,1.41c.05.5-.33.86-.32,1.35a9.63,9.63,0,0,1-.13,2.21c0,.08.05.18.09.31l-.47,1.08c-.1.34.13.57.18.85-.35.8,0,1.69-.28,2.48a11.78,11.78,0,0,0-.26,2.37l-.44.68c.16.26.3.54.13.8a1.81,1.81,0,0,0-.24,1.08c0,.76-.44,1.44-.25,2.18l-.49.7c-.18.43.13.75.19,1.2l-.52,1.19a1,1,0,0,0,.15.71l-.45,1a1.33,1.33,0,0,0,0,.28,9,9,0,0,1-.71,3.66,1.06,1.06,0,0,0,.05.95c-.11.39-.53.62-.5,1.12a4.14,4.14,0,0,1-.3,1.2c-.05.18-.19.35-.18.52a16.41,16.41,0,0,1-.67,3.26c-.1.63-.52,1.18-.6,1.85-.1.83-.38,1.62-.49,2.45a8.36,8.36,0,0,1-.82,2.34c-.08.17-.24.32-.26.49a31.18,31.18,0,0,0-.64,3.17c-.63.51-.58,1.32-.78,2a20.27,20.27,0,0,1-1,3l.12.41c0,.41-.59.59-.5,1.08s-.25.7-.3,1.07-.28.77-.31,1.21a5.66,5.66,0,0,1-.35,1.62,30.29,30.29,0,0,1-1.64,4.44c-.17.31.1.67-.22.9s-.28.67-.43,1a4.94,4.94,0,0,0-.17,1,.86.86,0,0,1-.13.39c-.44.64-.4,1.43-.72,2.11s-.46,1.31-.72,1.95c-.16.37,0,.75-.16,1.14l-.47.72a10.28,10.28,0,0,1-.33,2.16.65.65,0,0,1-.14.38c-.47.4-.47,1-.67,1.52-.28.74-.54,1.48-.86,2.21a11.11,11.11,0,0,0-.8,2.22,1.88,1.88,0,0,1-.61,1.28l.15.56c-.08.36-.56.59-.46,1.08a.79.79,0,0,1-.17.52c-.69.87-.71,2-1.18,3a4.34,4.34,0,0,1-.76,2.08,3.1,3.1,0,0,0-.43,1.7c-.19.2-.45.34-.5.52a7.09,7.09,0,0,1-.59,1.42,3.48,3.48,0,0,0-.31,1.07,1.85,1.85,0,0,1-.7,1.58,4.57,4.57,0,0,0-.46,1.64,1.36,1.36,0,0,1-.67.62.89.89,0,0,0-.09.26,3.06,3.06,0,0,1-.33,1.35,21.07,21.07,0,0,0-1,2.16,6.59,6.59,0,0,1-1,2,1,1,0,0,0-.2.36,8.78,8.78,0,0,1-1.94,3.19c-.42.46-.41,1.14-.88,1.56a4,4,0,0,0-.1,1.58l-.42.31c0,.33.06.78-.12,1s0,.81-.15,1.2a5.63,5.63,0,0,0-.32,1.06,1.06,1.06,0,0,0,.21.71,2.53,2.53,0,0,0-.22.62,4.91,4.91,0,0,0,0,1.27c.06.45-.37.81-.24,1.22.2.61-.14,1.18,0,1.78a1.17,1.17,0,0,1-.09.69,4.73,4.73,0,0,0-.18,1.94,1.09,1.09,0,0,0,.38.74c.15.24-.13.42-.12.64s0,.47,0,.71c0,.89,0,1.79,0,2.68a15.93,15.93,0,0,0,.36,4c.09.44-.14.89.16,1.31.1.15,0,.45-.05.68s-.23.48-.17.66c.23.74-.09,1.46,0,2.19a2.15,2.15,0,0,0,.17,1,1.13,1.13,0,0,1,0,1.07,1,1,0,0,0-.12.54,8.65,8.65,0,0,1-.05,2.09,3.67,3.67,0,0,0-.4.53,4.05,4.05,0,0,0-.24.67h-.39a4,4,0,0,1-1.37,1.79l-.78.1-.66.48-.54-.1-.25.33a1.25,1.25,0,0,1-.26.07l-1.84,0a1.08,1.08,0,0,0-.73.22c-.92,0-1.23-.83-1.81-1.25s-.51-1.36-.81-2.06a14.59,14.59,0,0,0,.48-1.7,10.09,10.09,0,0,0,0-1.56l-.95.17a5.15,5.15,0,0,1-.68.59,5.79,5.79,0,0,1-.91.39l-1,1.42-.77.28c-.16.56-.76.9-.82,1.56,0,.23-.26.37-.46.51s-.28.15-.31.25a4.88,4.88,0,0,1-1.34,1.89,2.7,2.7,0,0,1-.79.75,1.77,1.77,0,0,0-.88,1.06H381a2.26,2.26,0,0,0-1,.16,1.5,1.5,0,0,1-1.48-.07c-.24-.14-.43.08-.7.09l-1.79-1.5.92-3.25a4.87,4.87,0,0,0,.71-1.33,5.2,5.2,0,0,1,.87-1c.16-.38,0-.63-.08-.93l.58-.17c.18-.36.24-.85.65-1.15l-.41-.61c.08-.1.15-.25.26-.3a1.29,1.29,0,0,0,.75-1.24c0-.23,0-.47,0-.7s.08-.42.13-.69h-1.25l-.8-.54c-.55,0-.53.55-.86.75l-.76-.24L376,528c-.5-.26-.49-.85-.83-1.14a3.73,3.73,0,0,1-.66-1,7.77,7.77,0,0,1-.69-1.23,6.42,6.42,0,0,0-.08-1.39,3.43,3.43,0,0,1-.19-1.46c0-.3.55-.47.49-.88s.35-.77.26-1.21a1.51,1.51,0,0,0-.12-.26l.42-.58.11-.79a16.48,16.48,0,0,1,2.2-2.57c.34-.29.17-.81.62-1.06a1.24,1.24,0,0,0,.51-1c0-.3.29-.47.42-.71a4.83,4.83,0,0,0,.29-.84,2.44,2.44,0,0,0,1.57-1.95c.47-.47.53-1.16.93-1.69a2,2,0,0,0,.47-1.47l.43-.34c.23-.72.22-1.59,1.12-1.93.19-.59.33-1.18,1-1.47.13-.06.2-.3.28-.46s.12-.35.19-.52.07-.07.2-.18l1.65-.55a4.49,4.49,0,0,1,1-1.28c.18-.45.09-.94.46-1.33a2.57,2.57,0,0,0,.44-1,2.15,2.15,0,0,1,.45-1,.89.89,0,0,0,.17-.51,2,2,0,0,1,.31-.92c-.23-.88-.46-1.73-.68-2.55l.16-2.67,1.08-.23.46-.42c.06-.26.09-.35.1-.44a4.61,4.61,0,0,1,.21-1.8.83.83,0,0,0,0-.69,3.59,3.59,0,0,1-.19-1.65,5.23,5.23,0,0,0-.21-2.08c-.05-.11,0-.27,0-.4s.15-.42.08-.54c-.41-.68,0-1.51-.43-2.18a2.72,2.72,0,0,0-.31-1.77,1.74,1.74,0,0,0,.09-1.45,1.38,1.38,0,0,1-.14-.82,11.81,11.81,0,0,0-.33-3.19,21.17,21.17,0,0,1-.25-2.5c0-.41-.23-.82-.23-1.23s-.36-1-.31-1.5a3.89,3.89,0,0,0-.23-1.5c-.18-.57-.09-1.2-.22-1.8-.18-.89-.64-1.65-.85-2.51a3.47,3.47,0,0,0-.71-1.5.69.69,0,0,1-.16-.23,16,16,0,0,0-2.13-3.75,8.25,8.25,0,0,1-.63-1.39c-.36-.54-1-.88-1.05-1.62-.51-.78-1-1.57-1.51-2.34-.07-.11-.23-.16-.37-.25l-.09-1c-.5-.31-.51-.93-.8-1.39s-.19-1-.35-1.52a2.09,2.09,0,0,1-.92-1c-.22-.4-.68-.64-.82-1.08l-.81-.12c-.53-.28-.5-.72-.53-1.13s-.47-.31-.74-.49h-3.33a1.91,1.91,0,0,0-1.1.19.52.52,0,0,1-.4.07c-.79-.25-1.55.1-2.34,0a18.76,18.76,0,0,0-2.25,0,4.39,4.39,0,0,0-1.93.23,2.64,2.64,0,0,1-1,0,2.83,2.83,0,0,0-1.38.19.78.78,0,0,1-.4.08,7.22,7.22,0,0,0-3,.46c-.12.05-.34-.11-.49.07a1,1,0,0,1-1.29.19,1.32,1.32,0,0,0-1.21,0,1.9,1.9,0,0,1-.67.13,5.71,5.71,0,0,0-2.21.25,2.88,2.88,0,0,1-1,0,1.69,1.69,0,0,0-.83.1,1.73,1.73,0,0,1-1.49,0,2,2,0,0,0-.54-.1,2.08,2.08,0,0,0-.46.06,14.72,14.72,0,0,0-.39,3.24,8.15,8.15,0,0,1-.22,2.64c-.19.55-.11,1.19-.3,1.78a1.78,1.78,0,0,0,.08,1.17l1.41.43c.18.06.34.16.52.21s.22,0,.27,0c.33-.33.69.15,1-.08a1.51,1.51,0,0,1,1.71.13l0,0c-.1.4-.42.59-.75.82-.31,0-.63,0-1,0a2.2,2.2,0,0,1-.51-.21,2.67,2.67,0,0,1-2.16.08l-.55.25a6.13,6.13,0,0,0-.39,1.14,7.1,7.1,0,0,1-.26,1.36,1.1,1.1,0,0,0,.27,1.07,1.88,1.88,0,0,0-.29,1.5,4.69,4.69,0,0,1-.29,1.49c-.14.54.22,1.05,0,1.63a5.26,5.26,0,0,0,0,1.54c0,.51,0,1,0,1.49a.7.7,0,0,1-.14.15.49.49,0,0,1-.52.05.66.66,0,0,1-.18-.5,6.37,6.37,0,0,0-.08-1,4.07,4.07,0,0,1,0-2.58,3.91,3.91,0,0,0,.05-.84,11.77,11.77,0,0,0,0-1.68c-.07-.51.36-1,.06-1.49a3.37,3.37,0,0,0,.24-1.63c0-.56,0-1.12-.05-1.59a.86.86,0,0,0-.6-.48,1.5,1.5,0,0,1-1.06-.58c.28,0,.58.07.82-.12s.67-.05.9-.5a5.13,5.13,0,0,1,0-.87,4.21,4.21,0,0,0,.26-1.49c.32-.49-.13-1,0-1.47a3.9,3.9,0,0,0,0-1.89,3.27,3.27,0,0,1,0-.7v-1.72c-.25-.34-.38-.66-.8-.69a3.78,3.78,0,0,1-.12.82,4.1,4.1,0,0,0-.22.8,8.92,8.92,0,0,1-.76,3.21,4.83,4.83,0,0,0-.3,1l.19.52a2.94,2.94,0,0,0-.68,2.45c.1.39.63.26.72.64h-.52c-.34.08-.5.32-.77.58a9.9,9.9,0,0,0-.72,2.83l-.5.74c0,.39,0,.76-.06,1.14a.27.27,0,0,1,0,.13,6,6,0,0,0-.69,2.26,2.25,2.25,0,0,0-.11.68,4.87,4.87,0,0,1-.26,1.65c-.27.74-.25,1.55-.52,2.3a2.93,2.93,0,0,0-.05.84c0,.85,0,1.69,0,2.54a6.06,6.06,0,0,1-.22,1.51,2.21,2.21,0,0,0-.12,1.48,1.66,1.66,0,0,0,0,1.49,3.82,3.82,0,0,0-.17,1.39,2.55,2.55,0,0,0,.26,1.32,19.87,19.87,0,0,0-.52,3.87c0,1.65,0,3.29,0,4.94a3.17,3.17,0,0,0,.2,1.51c.23.44-.13.9-.19,1.42l.49,1.17-.19.56a2.28,2.28,0,0,1,.25,1.41c-.09.58.33,1.06.27,1.64a2.56,2.56,0,0,0,.25,1.51c0,1,.45,1.91.35,2.88l.49.69c.09.33-.09.57-.18.83,0,.44.34.76.48,1.28l.06.87.5.69-.13.48c0,.21.17.42.31.65.41.12.53-.34.84-.41.42.21.48.67.66,1v1l-.67.72-.07,1,1.81,2.24a3.88,3.88,0,0,1,.34,2.13c.33.54.61,1,.91,1.49a1.78,1.78,0,0,0,.42.35l-.31.27c0,.27.27.35.37.57a3.41,3.41,0,0,1,.05.55A2.3,2.3,0,0,0,347,516a1.05,1.05,0,0,1,.31.62.77.77,0,0,0,.44.8s.07.07.08.11a10.5,10.5,0,0,0,1.72,3.15l-.16.43a3.14,3.14,0,0,1,.5,1.11,9.06,9.06,0,0,0,.59,2,3.08,3.08,0,0,0,.5.69v2.48l1.11,2.12c-.07.54.78.58.62,1.16a2.79,2.79,0,0,0,1.06.9,2.22,2.22,0,0,1,.77.81c.16.3.5.41.65.75V534c-.4.31-.66.84-1.26.94a1.65,1.65,0,0,0,0,1.16l-.25.88a1,1,0,0,1-1.1.33l-.47-.51c-.86,0-1.7.48-2.73.2l-.75-.65a3.45,3.45,0,0,1-1.54-.75c-.16-.45,0-1.09-.57-1.46,0-.64-.57-1-.72-1.64s-.65-.9-1-1.33-.94-.59-1.23-1.12c-.57.26-.57.79-.73,1-.23.64.39.78.36,1.27a3.45,3.45,0,0,0,.41,1.3c.14.39.28.78.44,1.21l.74.48c.21.24,0,.39,0,.62.4.64.1,1.66,1,2.13.05.74.39,1.41.41,2.17a1.52,1.52,0,0,0,.47.84,3.28,3.28,0,0,0,.67.45,2.77,2.77,0,0,1,.54,1.45c0,.26.11.5.09.79s.27.36.38.56a1.32,1.32,0,0,1,0,.46,5.46,5.46,0,0,0-1.47,2.1l-.37.3c-.76.56-1.5.24-2.24,0-.16-.4-.68-.36-.86-.62-.29-.44-.72-.36-1-.44s-.46-.6-.73-.76a1.69,1.69,0,0,1-.69-.66.8.8,0,0,0-.44-.32,8.92,8.92,0,0,1-3-2.06l-.7.17c-.49-.14,0-.53-.29-.72-.17-.1,0-.46-.26-.62a.68.68,0,0,0-.75.12c-.54-.15-.27-.5-.23-.83a3.68,3.68,0,0,0-.92-1c-.2,0-.35.2-.61.09-.39-.87-.86-1.78-1.22-2.73a4.39,4.39,0,0,0-.68-1.37c-.3-.35-.23-.89-.66-1.2a1.63,1.63,0,0,1-.74-1.14c-.61.94-.24,2-.73,2.79a5.71,5.71,0,0,1,.26,2.3,3,3,0,0,0,.21,1.65.83.83,0,0,1,.05.42,8,8,0,0,1,0,1c0,.29.37.46.17.79l-.7-.13c-.45.2-.23.65-.48.9,0,.35.27.69.14,1.07s-.27.68-.42,1.06a3.63,3.63,0,0,1-1.31,0c-.51-.2-.51-.85-1-1-.13,0-.22-.29-.29-.45a3,3,0,0,1-.15-.55l-2.17-1a7,7,0,0,1-1-1.79c-.53-.51-.48-1.31-.95-1.89l.27-.73a4.18,4.18,0,0,1-.3-1.83c0-.31-.18-.62-.19-.94a5.2,5.2,0,0,1,.2-.8c.08-.53-.16-1.05,0-1.62a3.64,3.64,0,0,0,0-1.54,3.72,3.72,0,0,1-.1-1.58,4.79,4.79,0,0,1,.28-1.22,2.34,2.34,0,0,0,.09-1.23l-.7-.84.17-.48-.51-.73-.07-1-.43-.58a1.57,1.57,0,0,0,0-1.25c-.05-.09-.34,0-.52-.15s-.11-.53-.21-.87a14.17,14.17,0,0,0-2.43-2.31,3.94,3.94,0,0,1-.67-1.75c0-.16-.16-.32-.25-.48s-.24-.33-.24-.49a4.37,4.37,0,0,0-.57-1.62c.09-.41.54-.58.75-.95a1.31,1.31,0,0,0-.07-1l-.82-.55c-.15-.38.32-.46.28-.75-.93-1.06-.93-1.06-2.35-3.82l-.71-.47c-.49-.67-.61-1.46-1.18-2a1.32,1.32,0,0,0-.32-.2c-.26.39.07.88-.3,1.25-.76,0-.81-.94-1.39-1.21l.14-.44a9.59,9.59,0,0,1-.76-1.28c-.19-.46-.61-.71-.84-1.13a11.86,11.86,0,0,0-.41-1.46,2.73,2.73,0,0,0-.77-1.29,7.63,7.63,0,0,1-1.1-1.91,6.37,6.37,0,0,0-.69-1.35,2.57,2.57,0,0,1-.27-.49,5.63,5.63,0,0,0-1.58-2.22c.06-.88-.61-1.57-.75-2.41l-.64-.46-.09-.65c-.05-.22-.24-.29-.45-.41a3.21,3.21,0,0,0-.57-1.65c-.58-.8-.73-1.82-1.4-2.56-.14-1.05-1.06-1.73-1.3-2.76-.07-.33-.42-.6-.66-.93l.09-.38c-.54-.66-.74-1.54-1.28-2.24a14.72,14.72,0,0,1-1.05-1.81,2.05,2.05,0,0,0-.78-1c-.3.08-.12.4-.28.55s-.32.15-.55.11a4.07,4.07,0,0,1-.49-2.54l-1.65-2.12c-.13-.68.07-1.46-.32-2.15-.09-.16-.08-.38-.19-.52a12.75,12.75,0,0,1-1.1-2.54,4.24,4.24,0,0,1-.22-1,3,3,0,0,1-.91-1.48,1.45,1.45,0,0,0-.42-.71,10.3,10.3,0,0,1-1.95-2.95v-1.19c.15-.36.48-.46.79-.69v-1.6c-.39-.56-.45-1.4-1-2l.12-.4a1.11,1.11,0,0,0-.07-.26,6,6,0,0,1-.49-1.45c-.17-.91-.42-1.8-.56-2.72a5.07,5.07,0,0,0-.77-2.32,16.58,16.58,0,0,0-.45-3.48,33,33,0,0,1-.72-3.82,8.83,8.83,0,0,0-.26-1.36,10.48,10.48,0,0,1-.31-2.49,6.58,6.58,0,0,0-.35-1.49c0-.18-.18-.36-.16-.53.15-1.31-.55-2.53-.39-3.84a16.75,16.75,0,0,1-.51-3.72,13.33,13.33,0,0,1-.3-2.49A21.64,21.64,0,0,1,281,420a6.4,6.4,0,0,0-.21-1.37,2.29,2.29,0,0,1-.1-1.49.8.8,0,0,0,0-.55,4.92,4.92,0,0,1-.22-1.94,4.39,4.39,0,0,0-.22-1.93,1.94,1.94,0,0,1,0-.84c0-.89,0-1.79,0-2.68a3,3,0,0,0-.21-1.51,2.24,2.24,0,0,1-.07-.83,3.93,3.93,0,0,0-.23-1.79c-.1-.19,0-.46-.05-.7a13.5,13.5,0,0,0,0-1.91,11.14,11.14,0,0,1,0-1.83,4.08,4.08,0,0,0-.2-1.66,2.86,2.86,0,0,1-.08-.83,8.59,8.59,0,0,0-.21-1.81,8.4,8.4,0,0,1-.08-1.82,5.81,5.81,0,0,0-.19-1.8,5,5,0,0,1-.09-1.4c0-1.93,0-3.86,0-5.78,0-.42-.11-.84-.12-1.24s.11-.73.1-1.11a2,2,0,0,0,0-.7,2.41,2.41,0,0,1,0-1.9c-.3-.69.12-1.36.06-2.05s0-1.32,0-2c0-1.22,0-2.44,0-3.66a2.41,2.41,0,0,1,.17-1.24,1.6,1.6,0,0,0,.07-.55,11.28,11.28,0,0,1,.25-3.06c.12-.35-.11-.78,0-1.21a4.8,4.8,0,0,0,0-1.26,3.64,3.64,0,0,1,.2-1.66,2.06,2.06,0,0,0,.06-.83,3.63,3.63,0,0,1,.15-1,2.64,2.64,0,0,0-.09-1.93,2.35,2.35,0,0,0,.14-.37,14.14,14.14,0,0,0,.38-2.9c0-.52.33-1,.28-1.51a2,2,0,0,1,.24-1.36c0-1.17.63-2.24.62-3.42a35.38,35.38,0,0,1,1.12-3.44c.17-.38.29-.78.44-1.19-.05-.17-.09-.34-.14-.52-.12-.44.22-.81.21-1.23s-.34-.78,0-1.21c.06-.1-.09-.35-.16-.62.41-.57.11-1.38.42-2.09s-.06-1.48.26-2.2-.09-1.51.36-2.13a1.7,1.7,0,0,0-.63-1,14.41,14.41,0,0,1-1.81-1.77,12.9,12.9,0,0,1-1-1.74,2.85,2.85,0,0,1-1.74-1.06l-.6-1.81a4.71,4.71,0,0,0,.2-.92,6,6,0,0,1,.9-2.75A27.84,27.84,0,0,1,281,322a1.16,1.16,0,0,0,.24-.5,6.72,6.72,0,0,1,1-2.27c.08-.17.15-.34.26-.6s0-.67,0-1a24.41,24.41,0,0,0,.28-3.62,7.49,7.49,0,0,0,.32-1.92,14.3,14.3,0,0,0,.25-1.94,5.84,5.84,0,0,1,.2-.7,14,14,0,0,1-.3-2.68,2.75,2.75,0,0,1-.51-1.2,4.67,4.67,0,0,0-.52-1.25c.12-.11.17-.2.24-.22a2,2,0,0,1,.42,0,3.89,3.89,0,0,1,1.59,3.14,4.45,4.45,0,0,0,.22,1.52,1.24,1.24,0,0,1,0,.83,7.7,7.7,0,0,0-.23,2.78c0,1-.33,2-.35,3.06a2.41,2.41,0,0,0-.21,1.37c0,1.09,0,2.17,0,3.11a3.8,3.8,0,0,1-1.28,1.92c-.31.71-.33,1.5-.88,2.06a10.87,10.87,0,0,0-.93,5.32,5.36,5.36,0,0,0,.89,2.48,11,11,0,0,0,2.15,2.36,3.45,3.45,0,0,0,.85.34c.09.05.07.51.45.59a3.54,3.54,0,0,0,.41-1.59,7.93,7.93,0,0,1,.82-3.89,4,4,0,0,1,.21-.4l.94-.48a1.41,1.41,0,0,1,.81.76c0,.1,0,.22-.09.26a2.93,2.93,0,0,0-1.29,1.56,11.4,11.4,0,0,0,0,1.3,7.35,7.35,0,0,1-.37,2.76,6.44,6.44,0,0,0-.17,1,28,28,0,0,1-.37,2.9c-.25,1.14-.39,2.29-.72,3.41-.26.85-.55,1.68-.8,2.53a13.71,13.71,0,0,0-.72,3.16,3.12,3.12,0,0,0-.83,2,18.77,18.77,0,0,1-.49,1.89c-.23,1.28-.47,2.56-.64,3.85-.13,1-.14,2-.3,2.91s-.17,1.77-.24,2.65c0,.46-.19.91-.25,1.37a5.94,5.94,0,0,1-.18,1.38,3.41,3.41,0,0,0-.12,1.11c0,.85,0,1.69,0,2.54a3.45,3.45,0,0,1-.19,1.52,1.73,1.73,0,0,0-.07.69,13.61,13.61,0,0,0,0,1.69c.08.9-.35,1.76-.24,2.64a16,16,0,0,1,.23,2.5c0,.84,0,1.69,0,2.34.18.54.55.61.84.9,0,.86,0,1.8,0,2.73a6.82,6.82,0,0,1-.25,2.77,8,8,0,0,1,.05,3.72,7,7,0,0,0,0,2.24c0,.13.08.28,0,.39a6.07,6.07,0,0,0,0,2.51,2.54,2.54,0,0,1,0,.39,5.66,5.66,0,0,0,.14,2.77,2.32,2.32,0,0,1,0,.7c0,1.5,0,3,0,4.51a3.24,3.24,0,0,0,.24,1.79,8.77,8.77,0,0,0,.58,3.28,12,12,0,0,1,.13,1.25,14.37,14.37,0,0,0,.71,2.4c.2.46.23,1,.39,1.47s.42,1,.63,1.55a1.71,1.71,0,0,1,.06.35c-.13.18-.27.18-.39.1a2.19,2.19,0,0,1-1-1.64c0-.14,0-.27-.06-.37a1.45,1.45,0,0,0-.63-.6c-.05.07-.13.14-.13.21a5,5,0,0,0,.12,1.67c-.23.88.3,1.73.14,2.61a.44.44,0,0,0,0,.28,8.58,8.58,0,0,1,.28,3.19,2.57,2.57,0,0,0,.32,1.35,2,2,0,0,0-.06,1.91,4.82,4.82,0,0,1,.34,1.78,23.23,23.23,0,0,0,.36,2.62,4.11,4.11,0,0,1,.14.68,13,13,0,0,0,.51,3.44,9.1,9.1,0,0,0,.38,2.84c.29,1.51.57,3,.92,4.5a9.79,9.79,0,0,0,.68,1.69c.08.19,0,.36-.1.58l1,2.12.06,1.35a16.53,16.53,0,0,1,1.18,3.33,15.33,15.33,0,0,1,.88,2.63,1.06,1.06,0,0,1,.13.39,4,4,0,0,0,.58,1.86,2.58,2.58,0,0,1,.28.79,4.93,4.93,0,0,0,.26.93c.4,1.24.84,2.47,1.15,3.73.12.47.61.75.56,1.25s.34.75.55,1.16l-.15.51.42.58.09,1c.76.94.69,2.31,1.59,3.09l-.19.56c.11.23.21.49.34.74a5.15,5.15,0,0,1,.51,1.44,2.59,2.59,0,0,0,.58,1.4,1,1,0,0,1,.23.64,1.28,1.28,0,0,0,.31.77.92.92,0,0,1,.23.5,4.73,4.73,0,0,0,.65,2c.21.47.37.95.58,1.42a11.31,11.31,0,0,1,.54,1.29,5.12,5.12,0,0,0,.53,1.14c.4.74.87,1.44,1.21,2.21a11.55,11.55,0,0,0,1.17,2.05,5.58,5.58,0,0,1,.58,1.11c.21.49.73.72.9,1.22a14.57,14.57,0,0,0,.58,1.42c.25.49.57,1,.86,1.44.57,1,1.13,1.92,1.71,2.88s1.13,1.81,1.73,2.76l.64.17c.16.19-.11.33-.06.48,0,.34.33.46.48.78l.13.75c.32.28.63.54.93.83.14.12.33.27.35.42.09.69.7,1.1.89,1.73a.75.75,0,0,0,.22.35c1,.75,1.2,2,1.95,2.89a5.14,5.14,0,0,0,.59,1.41c.41.73.82,1.46,1.21,2.21.19.36.52.62.61,1.09a1.68,1.68,0,0,0,.93,1c.25.14.52.46.87.15a3.77,3.77,0,0,0,.84,1.12c-.14,1.34.92,2,1.51,2.88l.63.06a3.89,3.89,0,0,1,.55.12l.35-.45.37,0,.16-.59c.42-.27.89-.1,1.32-.1s.3.62.55.66a2.1,2.1,0,0,0,1.08.17c.55.05,1.08-.25,1.63-.07.81-.36,1.76-.21,2.52-.69a1,1,0,0,0,.83.12,7.73,7.73,0,0,1,1.88-.47c.42-.06.75-.37,1.21-.31a11.33,11.33,0,0,0,1.31,0,6.39,6.39,0,0,1,3.24-1.21l.4-.65c0-.46-.49-.6-.51-1.11l.34-1.16a.92.92,0,0,1,.78-.4c.05.07,0,.3.19.13l-.21-.11.23-.5c-.11-.88-.68-1.62-.8-2.51a12,12,0,0,1-.3-2.42l-.43-.61c.25-.77-.32-1.46-.12-2.17l-.53-.77a5.31,5.31,0,0,0,.64-2.24l-.48-.13c-.13-.29.19-.36.28-.54s.15-.34.23-.51,0-.19,0-.26c-.2-.62-.15-1.29-.39-1.91a1.17,1.17,0,0,1,.07-.82,3.08,3.08,0,0,0,.19-1.37c0-1.74,0-3.48,0-5.21a3.14,3.14,0,0,1,.23-1.65,1.56,1.56,0,0,0,.05-.69c0-.52,0-1,0-1.44.07-.56.55-.89.38-1.4s.24-.87.19-1.36a18.49,18.49,0,0,1,0-2,8.55,8.55,0,0,1,0-1.68A15,15,0,0,0,338,472c.07-1,.06-2,.07-2.95,0-.23,0-.46,0-.71a1.14,1.14,0,0,0-.77.81,3.53,3.53,0,0,1-.7,1.36,2,2,0,0,0-.41.88,1.61,1.61,0,0,1-.75,1,.52.52,0,0,1-.55-.23s-.07-.09-.05-.12c.23-.56.16-1.2.51-1.73a2.68,2.68,0,0,0,.53-1.42.55.55,0,0,1,.15-.38c.41-.33.42-.83.57-1.26s.33-.87.53-1.29a1.18,1.18,0,0,0,0-1.08,1.86,1.86,0,0,1,0-1.48,3.92,3.92,0,0,0,.42-1.75l.74-.84-.14-.53a1,1,0,0,1,.61-.57,1,1,0,0,0,.15-.23c.44-1.47,1.15-2.84,1.52-4.33,0-.17.22-.3.33-.45a.82.82,0,0,0,.08-.71l-1-.63c.26-.33.26-.33.94-.43.63-.33.76-1.05,1.23-1.53l.07-1.27.52-1.06a6.9,6.9,0,0,1,.59-2.77l-.3-.65c.48-.33.48-.33.4-.76a.31.31,0,0,0-.37.18v.6a.66.66,0,0,0-.55.57c-.12.83-.77,1.36-1.15,2-.05.09-.23.11-.34.15-.32-.25-.3-.59-.06-.72.4-.2.41-.61.67-.86v-1.08c.06-.16.07-.25.11-.33a29,29,0,0,0,1.32-3.09,1.69,1.69,0,0,1,.25-.48,1.81,1.81,0,0,0,.33-1.69,1.83,1.83,0,0,1,0-.52l.51-.71a6.15,6.15,0,0,0-.21-2.38,2,2,0,0,1,0-.7c0-1,0-2.07,0-3.1a3.49,3.49,0,0,0-.21-1.66.83.83,0,0,1-.07-.41,4.36,4.36,0,0,0-.31-2.06,7,7,0,0,1-.3-2.23,6,6,0,0,1-.58-1.84,13.4,13.4,0,0,1-.26-1.78,13.72,13.72,0,0,1-.82-2.09c-.19-.58-.4-1.14-.61-1.71a2.07,2.07,0,0,1-.2-.52,9.91,9.91,0,0,0-1-3.19,11.51,11.51,0,0,0-.56-1.72,7.87,7.87,0,0,1-.73-1.52,4.42,4.42,0,0,0-2-2.35,2.62,2.62,0,0,1-1-.77.48.48,0,0,1,.12-.75,9.29,9.29,0,0,1,2.92,1.78,7.39,7.39,0,0,1,1.94,2.87c.32-.13.27-.35.2-.47a11.1,11.1,0,0,1-.77-2.23,23.85,23.85,0,0,0-.89-2.36,22.74,22.74,0,0,1-.79-2.23c-.25-.85-.42-1.72-.66-2.56s-.55-1.79-.89-2.65a4.19,4.19,0,0,1-.52-1.73.66.66,0,0,0-.06-.27,10,10,0,0,1-.86-1.88,6.1,6.1,0,0,0-1-1.84c-.41-.62-.88-1.2-1.32-1.79a.51.51,0,0,1,.5-.42,1,1,0,0,1,.65.5,32,32,0,0,0,2,2.49,9.51,9.51,0,0,1,1.5,3.27,17.68,17.68,0,0,0,.66,2,2,2,0,0,1,.24.79.87.87,0,0,0,.25.64c.21.22.19.54.33.76.29.47.12,1,.35,1.49a2.47,2.47,0,0,1,.5,1.27c.46.71.4,1.63.95,2.3a.27.27,0,0,1,.06.12,7,7,0,0,0,.89,2c.39.57.65,1.23,1,1.84a18.63,18.63,0,0,1,1.25,2.81,22.49,22.49,0,0,1,1.28,3.24c0,.21.26.38.43.6v.81l.55,1.19c0,.1,0,.24,0,.38a3.05,3.05,0,0,0,.22,1.52.59.59,0,0,1,.05.27,26.34,26.34,0,0,0,.41,3.18,1.27,1.27,0,0,1,0,.39,3.66,3.66,0,0,0,.12,1.77,25.18,25.18,0,0,0,.55,2.58,3.52,3.52,0,0,1,.06,1,2.81,2.81,0,0,0,.2,1.24,2,2,0,0,1,.1.82c0,.66,0,1.32,0,2a7.54,7.54,0,0,0,.06.83c0,.23.17.44.19.67.07.68.09,1.37.16,2.05,0,.33-.23.61,0,1.07l.45.48a1.36,1.36,0,0,0,.31.1,4.55,4.55,0,0,1,1.93.27.15.15,0,0,0,.13,0c.88-.12,1.73.27,2.61.14a.73.73,0,0,0,.79,0c.08,0,.21-.09.27,0,.55.34,1.17,0,1.74.19A1.77,1.77,0,0,0,358,441l-.62-.9c-.32-.18-.82-.08-1.23-.35a6.59,6.59,0,0,0-1.17-.45,4.73,4.73,0,0,0-2.26-.41.92.92,0,0,1-.49-1.22c.22-.24.51-.18.79-.17s.61.57,1,.77l.78.11.62.47,1,.07a1.15,1.15,0,0,1,.57.66,4.21,4.21,0,0,0,1,.39,7.79,7.79,0,0,1,1.5.29.85.85,0,0,0,.68-.06c.45-.29,1-.1,1.47-.41a1.39,1.39,0,0,1,1.11,0l-.37.81c-.2.3-.65.1-.83.4l1.08.27c.79-.37,1.69,0,2.47-.33.4-.18.77.15,1.21-.07a1.27,1.27,0,0,1,1.2.18,5.37,5.37,0,0,0,2.49-.14.85.85,0,0,1,.41-.07,3.33,3.33,0,0,0,.8.13,2.14,2.14,0,0,1,.83-.11c.22,0,.49.23.65.16.53-.22,1.12-.09,1.66-.31a1.37,1.37,0,0,0-.83-1.1,13.07,13.07,0,0,1-1.42-1.16c-.33-.13-.67-.27-1-.38a4.61,4.61,0,0,0-1.91-.36,2,2,0,0,1-.68-.12,4.13,4.13,0,0,0-2.68.14,3.62,3.62,0,0,0-1.94-.28c-.1-.47-.1-.47.32-.81.49-.14.87.39,1.32.24.6-.09,1-.6,1.6-.56.43,0,.8-.44,1.21-.26.66.29,1.38.15,2,.46a14.79,14.79,0,0,0,1.88.62,7.45,7.45,0,0,0-.48-2.11c-.19-.67-.49-1.31-.68-2a13,13,0,0,1-.65-3.27,2.54,2.54,0,0,0-.16-.82.77.77,0,0,1,0-.54,2.33,2.33,0,0,0,0-1.52,5.68,5.68,0,0,1-.15-1.53c0-1.46,0-2.91,0-4.37a3.43,3.43,0,0,1,.19-1.52,2,2,0,0,0,.06-.56,7.59,7.59,0,0,1,.21-1.94c.21-.55,0-1.22.31-1.78a.48.48,0,0,0,0-.27,10.33,10.33,0,0,1,.79-4.08c.16-.52.05-1,.18-1.7a3.63,3.63,0,0,0,.4-1.4,4.1,4.1,0,0,1,.64-1.86,5.24,5.24,0,0,1,.33-2.18,9.33,9.33,0,0,0,.27-2.12l.52-.73v-1.71a6.06,6.06,0,0,0,.67-1.88,3.44,3.44,0,0,1,.65-1.53c.32-.39.25-1,.81-1.24a3.93,3.93,0,0,0,.44-1.59,13.27,13.27,0,0,1,0-1.41.52.52,0,0,1,.47-.49,2.12,2.12,0,0,1-.09,1.36,1.9,1.9,0,0,0-.11.68.66.66,0,0,0,.1.25c.15.17.34.1.51.1.33-.24.14-.63.33-1l.54-.28a.25.25,0,0,1,.18.33c-.14.39-.31.77-.53,1.28a4.06,4.06,0,0,1-.31,1.92,17.69,17.69,0,0,0-.79,3,6.14,6.14,0,0,1-.42,1.18,3.51,3.51,0,0,0-.48,1.59,1.46,1.46,0,0,1-.15.53c-.31.88-.6,1.76-.94,2.63a4.58,4.58,0,0,0-.3,1.64c0,.47,0,.93,0,1.34l-.55.78a6.65,6.65,0,0,1,0,1.48c0,.48-.31.89-.31,1.37s.23.8,0,1.23a.92.92,0,0,0,0,.69,4,4,0,0,1,0,2.17,10.25,10.25,0,0,0,.13,3.78,4.07,4.07,0,0,1,0,1.26,4.33,4.33,0,0,1-.2.79,8.76,8.76,0,0,1,.51,3.46,7.63,7.63,0,0,0,.28,1.36,10.62,10.62,0,0,0,.64,2.85c.25.62.14,1.29.44,1.91a4.88,4.88,0,0,1,.35,1.76,6.86,6.86,0,0,0,.46,1.75,5.91,5.91,0,0,0,.88,2.32,2.81,2.81,0,0,0,.31,1.2,2.35,2.35,0,0,0,.84.86,7.08,7.08,0,0,0-.46-2c-.18-.48-.3-1-.44-1.46-.51-1.74-1-3.49-1.46-5.23a2.63,2.63,0,0,1-.15-.53c0-.94-.37-1.83-.47-2.74a14.71,14.71,0,0,1-.11-1.49,2.43,2.43,0,0,0-.21-1.38.49.49,0,0,1-.05-.27,3.46,3.46,0,0,1,0-1.25c.25-.6-.16-1.34.44-1.78a5.86,5.86,0,0,1,0-3.08c0-.09.08-.2,0-.27a1.93,1.93,0,0,1,0-1.61,5.82,5.82,0,0,0,.13-1.52s.06-.07.09-.11l.27,0c.2.24.12.53.14.8a12.71,12.71,0,0,0,.14,3.08c0,.11-.06.26-.08.39a3.1,3.1,0,0,0,0,1.39,4.19,4.19,0,0,1,0,2.48c0,.08-.07.2,0,.26a4.11,4.11,0,0,1,.2,2.08,25.54,25.54,0,0,0,.35,3c.11.34.61.61.52,1.17,0,.19.15.42.23.64a6.85,6.85,0,0,1,.6,2.56,3.54,3.54,0,0,0,.28,1.5c.3.72.39,1.51.63,2.24s.52,1.39.79,2.08c.14.35.29.69.44,1a18.22,18.22,0,0,1,1.09,2.43,2.64,2.64,0,0,0,.49.84,2,2,0,0,1,.33.76c.2.26.65.32.68.66a1.93,1.93,0,0,0,.62,1.07c.43.49.84,1,1.22,1.53a14.13,14.13,0,0,0,1.4,1.71,15.42,15.42,0,0,1,1.62,2.26,3.86,3.86,0,0,0,.94,1,.47.47,0,1,0,.37-.86,6.51,6.51,0,0,1-.49-2.75,2.12,2.12,0,0,0-.14-.82,1.56,1.56,0,0,1-.11-.82,7.49,7.49,0,0,0-.33-2.21.67.67,0,0,0-.17-.37,2.59,2.59,0,0,1-.58-1.4,2.85,2.85,0,0,0-.66-1.39c.26-.55.18-1.21.74-1.63l.39.34a4.65,4.65,0,0,0,.7,2.33A16.44,16.44,0,0,1,390,445a3.17,3.17,0,0,0,.39.73,4.45,4.45,0,0,0-.1,1c0,.46.17.91.24,1.37s.07.92.17,1.39a20.94,20.94,0,0,1,.67,3.94c0,.44.27.8.27,1.22a1.49,1.49,0,0,0,.44,1,.63.63,0,0,1,.14.38,3.92,3.92,0,0,0,.83,1.91,6.62,6.62,0,0,1,1,2.11,12,12,0,0,0,1,2.74,4.68,4.68,0,0,1,.51,1.44c.06.39.49.53.45,1a2.24,2.24,0,0,0,.18,1.08c.27.64.22,1.38.74,1.94a1.2,1.2,0,0,1,.25.78,6.82,6.82,0,0,0,.65,2.27,3.6,3.6,0,0,1,.29,1.49,1.41,1.41,0,0,0,.16,1,1.28,1.28,0,0,1,.11.82c0,1.31,0,2.63,0,3.95a5.26,5.26,0,0,0-.06,1.49c.12.43-.43.83-.21,1.31l-.73.53c-.16,1-.32,1.93-.48,2.91-.6.42-.59,1.22-1,1.72a2.35,2.35,0,0,0,.14,1.42.77.77,0,0,1,.07.4,4,4,0,0,0,.41,1.91,1.69,1.69,0,0,1,.08,1.35c-.2.46-.1.93-.27,1.43a.89.89,0,0,1-1.2-.17,1.33,1.33,0,0,1-.11-.88l.47-.66a1.26,1.26,0,0,0-.38-.89l-.2.65c-.19.39-.68.36-.92.77a27.94,27.94,0,0,1-1.23,5c-.09.45.41.74.25,1.24.75.11.82,1,1.57,1.09.19.39.56.39.93.48a4.73,4.73,0,0,1,1.91,1.06l.75.07c.31.25.74.41.72.92-.35.33-.86.07-1.2.36a1.58,1.58,0,0,0-1.09-.13.48.48,0,0,0-.11.63c.25.26.63.08.92.24l.82.4c.21-.1.47-.2.71-.34s.54-.18.72-.48l-.11-.63c.09-.11.17-.26.28-.31a1.16,1.16,0,0,0,.75-.94,2.07,2.07,0,0,1,.76-1.57c.07,0,.07-.16.11-.25.4-.81.4-.81,1.28-1.1a5.29,5.29,0,0,0,1.1-2.08c.11-.56.71-.87.76-1.47.55-.76.65-1.75,1.35-2.47l.07-1c.17-.37.62-.67.59-1.19.38-.36.09-.94.41-1.31a3.53,3.53,0,0,0,.63-1.12l-.13-.43a12.76,12.76,0,0,0,1.6-3.47,27.21,27.21,0,0,0,1.08-3.15,1.47,1.47,0,0,1,.34-.75.76.76,0,0,0,.23-.35,6.75,6.75,0,0,1,1.06-2.69c-.31-.55.48-.74.39-1.25s.42-.93.5-1.43.42-.85.35-1.35a.56.56,0,0,1,.16-.37,3.75,3.75,0,0,0,.66-1.66,7.52,7.52,0,0,1,1-2.59,10.43,10.43,0,0,1,.61-1.92c.18-.8.59-1.56.83-2.36a6.38,6.38,0,0,0,.46-1.74,4.61,4.61,0,0,1,.52-1.39v-.74c.08-.13.14-.26.22-.37s.24-.23.24-.34c0-.83.65-1.45.67-2.26,0-.32.24-.49.4-.71a.59.59,0,0,0,0-.68c.27-.68.57-1.36.82-2,.08-.21,0-.46.09-.66a11.59,11.59,0,0,1,.79-2.07,5.71,5.71,0,0,0,.45-1.74c0-.18,0-.4.07-.54a10.81,10.81,0,0,0,.88-2.92,10.69,10.69,0,0,1,.77-2.23c.29-.58.14-1.21.39-1.77a8.31,8.31,0,0,0,.62-1.56,6.71,6.71,0,0,0,.37-2.57,9.9,9.9,0,0,0,1.17-3.29,14.56,14.56,0,0,1,.68-2.55c.15-.45.51-.92.14-1.39l.4-.52c.12-.2-.09-.35-.08-.49a26.51,26.51,0,0,0,1.13-4.05,10.63,10.63,0,0,1,1.06-3.61,16.58,16.58,0,0,1,.49-3.26,9.81,9.81,0,0,0,.41-2.45l.42-.58c0-.18-.16-.41-.1-.52a2.73,2.73,0,0,0,.21-1.51,9,9,0,0,1,.42-2.32c.15-.67.08-1.28.17-2-.2.07-.34.08-.35.13-.28.79-.84,1.44-1.15,2.21-.1.26-.2.52-.29.79-.21.47-.79.65-.87,1.44l-.35-1.17c.12-.29.4-.48.48-.84a3.25,3.25,0,0,1,.51-1.14c.22-.34.07-.72.23-1s.38-.64.6-1c0-.28,0-.6.06-1a5.63,5.63,0,0,0,.77-2.62,6,6,0,0,0,.35-2.19.85.85,0,0,1,.1-.4,11.3,11.3,0,0,0,.73-4.1,3.58,3.58,0,0,1,.33-1.35,3.75,3.75,0,0,0,.24-1.36,9.09,9.09,0,0,1,.21-2.07,9.51,9.51,0,0,0,.07-2.39,3.13,3.13,0,0,1,.27-1.3,4.5,4.5,0,0,1-.28-2.14c0-.8,0-1.6,0-2.4a.67.67,0,0,0-.32-.6c-.22-.09-.4.24-.66.06a3,3,0,0,1-.11-1.29l.41-.8.44-.07c0,.25-.1.53.19.81C432.21,382.08,432.37,381.79,432,381.63ZM291.5,464.84l-.2.13.2.13c0,.17,0,.34.14.47.2-.24.08-.37-.16-.45v-.3l.19-.13-.19-.14c-.22-.34-.26-.83-.75-1.07-.07.47.21.72.38,1l.39,0Zm90.24-16.36c-.06-.05,0-.29-.18-.13l.2.11c0,.15-.06.35.16.44C382,448.68,382,448.55,381.74,448.48ZM393,461.71c0,.17,0,.35.13.48.19-.23.1-.37-.15-.46a1.76,1.76,0,0,0-.24-1.19C392.83,461.06,392.55,461.45,393,461.71Zm-9.33,60.36a.65.65,0,0,0,.76-.4c-.24-.25-.46-.15-.69,0l0,.38a.3.3,0,0,0-.28.29c-.41-.06-.7.21-1,.39-.15.33-.45.6-.39,1a1.67,1.67,0,0,0-.68.05,33.43,33.43,0,0,1-3.2,1.22.33.33,0,0,0,.22.38h1.19l.64-.44c.28.12.54.3.7-.1l0,0,.76-.42.37-.73c.17,0,.4,0,.51-.14a11.87,11.87,0,0,0,.88-1c0-.06,0-.18,0-.27A.28.28,0,0,0,383.71,522.07Zm-2.8-78.41a2.06,2.06,0,0,0,0,.26c.06.24.17.37.41.17a.54.54,0,0,0-.46-.41c-.26-1-.3-1-.89-1.28C380.32,442.9,380.34,443.46,380.91,443.66Zm-40.35-29.59c-.05-.24.12-.53-.27-.79.06.34-.08.62.29.77a2.85,2.85,0,0,0,.36,1.61,6.39,6.39,0,0,1,.59,1.4c.07.24.13.56.46.65,0,.23,0,.47,0,.7a.76.76,0,0,0,.55.72,5.21,5.21,0,0,0,.24,1.78c.24.64.19,1.39.44,2a5.21,5.21,0,0,1,.49,2,.83.83,0,0,0,.11.4,12.17,12.17,0,0,1,.53,2.16c.07.32-.19.62,0,.93a4.82,4.82,0,0,1,.39.8l.07,1.6.33.07s.08-.07.08-.1a18.82,18.82,0,0,0,.07-2.37,13.16,13.16,0,0,0-.44-2.57,18.75,18.75,0,0,0-.53-2.15c-.32-.83-.51-1.68-.76-2.52a4.59,4.59,0,0,0-1.07-2.06,1.37,1.37,0,0,0-.56-1.41,10.19,10.19,0,0,0-1.19-3.52C340.74,414.14,340.63,414.11,340.56,414.07Zm6.79,109.41c0,.27-.09.55.13.78h.27c0-.32-.07-.62-.42-.75a2.77,2.77,0,0,0-.17-1.23,3,3,0,0,1-.36-1.32c0-.5-.65-.72-.41-1.24a2.25,2.25,0,0,1-.53-1.46l-.69-.78.19-.58c-.68-.46-.85-1.33-1.55-1.78a.53.53,0,0,0,0,.67c.3.46.62.91.93,1.36l-.17.43c.38.88.76,1.77,1.15,2.66a4.61,4.61,0,0,1,.22.51A6,6,0,0,0,347.35,523.48Zm-11,11.31,0,0-.18.45a5.91,5.91,0,0,1,1,1.88c.2.29.56.12.86.22l1.48,1.62c.45,0,.79.34,1.14.17s.77.41,1.26,0a.69.69,0,0,1,0-.84l-1-1.5-.07-.69-.45-.38c-.27-.92-.53-1.86-.82-2.86a.79.79,0,0,0,.1-.75c-.09-.19-.43-.19-.48-.8a3,3,0,0,1,0-.52c0-.23.13-.44.18-.66a5.21,5.21,0,0,0,.08-.55,5.06,5.06,0,0,0-.39-2.32,7.19,7.19,0,0,1-.46-2.65,9.08,9.08,0,0,0-1.88-2.34l-.25-1a1.81,1.81,0,0,1,.71-.58c.47-.07.77.23,1.11.46.06.82.77,1.14,1.18,1.64.26,0,.49-.14.68.1s.25.21.34.18c.49-.11.89.22,1.34.17l.24.39c.21.4.71.43,1,.77a4.16,4.16,0,0,0,.92,1,3.87,3.87,0,0,1,1.21,1.66,6.35,6.35,0,0,0,1.54,2.1,2.12,2.12,0,0,0,1.06,1.57c.27.06.5.09.59,0,.32-.68-.39-.88-.41-1.33l.14-.41a2.44,2.44,0,0,0-.93-.82l-.58-1.07-1.17-.65.21-.81c-.35-.19-.68-.36-1-.55a3,3,0,0,1-.32-.24l-.09-1.21a15.79,15.79,0,0,1-2.39-2.19,3.52,3.52,0,0,1-.35-1c0-.46-.5-.71-.47-1.12a2.66,2.66,0,0,0-.25-1.06,3.18,3.18,0,0,1-.17-1.09v-.94l-.51-1.14c-.06-.31.38-.52.07-.79l-.51.14a3.36,3.36,0,0,1-1-1c-.2-.31.11-.54.08-.81a.31.31,0,0,0-.3-.28c-.1.13-.2.37-.33.38a2,2,0,0,0-1.16.73c-.27.26-.55.51-.8.73a8.93,8.93,0,0,0-2.23.58l-.72-.22c-.31.09-.54.29-.94.18a3,3,0,0,0-1.32-.75,5,5,0,0,1-1.47.48c-.64,0-1,.54-1.53.63a14.55,14.55,0,0,1-1.85.54,3.83,3.83,0,0,0-1.88.26l-.54-.22-.69.21a2.34,2.34,0,0,0-1.76-1.78c-.06,0-.1-.15-.14-.23s-.13-.13-.22-.05c-.39.26-.31.64-.27,1.05l.47.65.13.8c.2.17.46.25.47.59l-.15.59.42.58.08,1.27c.24.54.82.49,1.05,1.07a3.26,3.26,0,0,1-.05,1.24l-.39.37.64,1.09-.36.56a19.55,19.55,0,0,1,.86,1.8,14,14,0,0,0,.7,2,4.62,4.62,0,0,1,.21.66,6.38,6.38,0,0,1,.08,1.95,1.26,1.26,0,0,1-.1.18l-.72.81v.7a8.78,8.78,0,0,0,.05,1.54c.1.55.38,1.06.07,1.62,0,0,0,.09,0,.13l.41.55c-.08.21-.15.38-.22.55a2.08,2.08,0,0,1,.05,1.6l.56,1.87c.52.87,1.38,1.08,2,1.61l.94-.68a6.94,6.94,0,0,1,.32-2.48c0-1,0-2.06-.07-3.09a1.8,1.8,0,0,1,0-.52,5.37,5.37,0,0,1,.56-1.71.82.82,0,0,0,0-.28l-.18-.42c.16-.49.34-1,.5-1.55s-.23-1.08-.25-1.63l.48-.68-.14-.39.38-.38a3.47,3.47,0,0,0,1.45.42c.58.56.57.56.62,1.12l-.49.43a.63.63,0,0,0,.26.76,2,2,0,0,0,.75.37,1.47,1.47,0,0,1,1.29,1.32l1.17.81a7.79,7.79,0,0,1,1.05,1.72A.76.76,0,0,0,336.35,534.79Zm44.28-13.85c-.36.47-.36.47.12,1a4.79,4.79,0,0,1,2-1.57,2.52,2.52,0,0,0,.48-.28c.36-.29.7-.6,1-.9,0-.92-1-.81-1.36-1.31a2.3,2.3,0,0,1-.05-.39.51.51,0,0,1,.22-.49c1,0,2-.6,3.06-.22l.9.64a3.45,3.45,0,0,1-.23,2.13l.53.69c.2,1-.71,1.64-.65,2.63a1.13,1.13,0,0,1,.1.3,3.3,3.3,0,0,1,0,.54,13.93,13.93,0,0,0-1.71,4,1.27,1.27,0,0,1-.2.36c-.23.35-.48.69-.7,1s-.44.58-.43.86c0,.58-.38.93-.59,1.38s-.6.69-.66,1.22-.61.66-1,.95a1.08,1.08,0,0,0-.33.61,2.61,2.61,0,0,1-.38.89,4,4,0,0,0-.41,3c.48.09.66-.24.86-.47s.74-.26.9-.64.42-.42.73-.56.51-.5.75-.75l.09-.62,1.56-1.52a2.32,2.32,0,0,0-.17-1.37,3.57,3.57,0,0,0,.9-1.7c.36-.27.6-.57.89-.63a2.05,2.05,0,0,0,1.43-1.21,8.83,8.83,0,0,1,.72-1h.8l.82.71A7.5,7.5,0,0,1,394,529c.18.34.35.62.48.91a1.54,1.54,0,0,0,.44.54,6.64,6.64,0,0,1,1.53,2.1,7.81,7.81,0,0,0,1.16,2c0,.06.16.07.25.11.44-.25.44-.25.38-.73.6-.6.39-1.48.68-2.22s-.26-1.63-.17-2.44l.43-.38a1.57,1.57,0,0,0-.39-1.66,2.49,2.49,0,0,0-.06-2l.27-.75a2.59,2.59,0,0,1-.07-2.13c0-.06,0-.19-.06-.26a.59.59,0,0,1,0-.66.65.65,0,0,0,0-.67,2.7,2.7,0,0,1-.2-1.37,6.67,6.67,0,0,0-.1-1.68,4.38,4.38,0,0,1-.16-1.52,3.09,3.09,0,0,1,.12-1.24c.22-.46-.22-.88-.15-1.36a7.59,7.59,0,0,1,.21-1.94,3.67,3.67,0,0,0,.08-1.25c0-.4.43-.77.09-1.2a1.1,1.1,0,0,0,0-1.16l.35-.49a10.6,10.6,0,0,1,.35-2.85,1.73,1.73,0,0,0-1-.14,5.73,5.73,0,0,1-2.14-.58,18.26,18.26,0,0,0-2.17-1.51,4.28,4.28,0,0,1-.71-.64,7,7,0,0,1-1.12-1.68l-1.27-.65c-.37,0-.7-.1-1,.1-.19.68-.69,1.19-.89,1.87a4.66,4.66,0,0,1-1.16,1.83l-.14.88c-.29.27-.57.51-.87.74a3.77,3.77,0,0,0-.69,1c0,.22.09.52,0,.55-.52.25-.38.82-.63,1.2-.12.17-.11.4-.31.58a6.48,6.48,0,0,0-.77,1c.14.21.49.21.4.55-.41.42-1.17.41-1.38,1.09-.54.38-1,.78-.94,1.54-.71.31-1.07,1.05-1.72,1.35a10.17,10.17,0,0,0-.89,1.94,3.15,3.15,0,0,0-.39,1.34c-.37.43,0,1-.2,1.45-.11.23,0,.54.12.82a2.88,2.88,0,0,0,.74,1,.78.78,0,0,1,.21.65ZM372,424.87c-.21.33.11.67-.08,1.05a2.41,2.41,0,0,0,0,1.11,31.22,31.22,0,0,1,.3,3.48.86.86,0,0,0,0,.28c.13.3.3.59.4.9s-.07.59,0,.94a28.23,28.23,0,0,0,1.13,3.44,19.13,19.13,0,0,1,.8,1.79,6.52,6.52,0,0,0,1.54,2.29.31.31,0,0,0,.38,0,.94.94,0,0,0,.05-.93c-.16-.43-.35-.86-.51-1.3-.3-.83-.54-1.68-.88-2.5a14.8,14.8,0,0,1-.89-2.63c-.23-1.09-.6-2.14-.81-3.24-.13-.72-.45-1.4-.55-2.16s-.5-1.4-.56-2.16A.49.49,0,0,0,372,424.87ZM394,470a2,2,0,0,0,0,1.33,5.25,5.25,0,0,1,.2,1.66,1.25,1.25,0,0,0,0,.55,4.1,4.1,0,0,1,.23,1.93c0,1.64,0,3.28,0,4.93a1.75,1.75,0,0,0,0,.69,5.72,5.72,0,0,1,.23,2.21,2,2,0,0,0,.43,1.43c.19-.07.37-.22.36-.4a4.51,4.51,0,0,1,.58-2,1.92,1.92,0,0,0-.12-.94,1.16,1.16,0,0,1-.09-.68c.14-.63.33-1.24.43-1.63a23,23,0,0,0-1-4.83c0-.06.06-.17.1-.28l.6-.23c-.22-1.32-1.07-2.36-1.48-3.59C394.44,470,394.24,469.91,394,470Zm-1.26,14a13,13,0,0,0-.1-3l.31-.45a2.5,2.5,0,0,1-.19-1.11c0-.42,0-.84,0-1.26s-.18-.54-.2-.81.17-.63.15-.94a14.13,14.13,0,0,0-.3-2.34c-.33-1.34-.5-2.72-.88-4.06-.18-.2-.32-.46-.63-.54a1.27,1.27,0,0,0,0,1.09,3,3,0,0,1,.21,1.37c0,.54.27,1.06,0,1.62a.71.71,0,0,0,.09.54c.27.47,0,1,.31,1.49s-.07,1.09.21,1.5.06,1,.11,1.46a9.51,9.51,0,0,1,.08,1.19c0,.48.33.91.2,1.34a1.94,1.94,0,0,0,0,.93c0,.3-.16.62-.17.94s-.14.75.19,1.06Zm-5.53-28a1.29,1.29,0,0,0,.07.33,5.68,5.68,0,0,0,.73,1.35c.42.44.18,1.09.54,1.56a1.2,1.2,0,0,1,.26.63,3.43,3.43,0,0,0,.59,1.84,6.24,6.24,0,0,1,.35,1.19,6.89,6.89,0,0,0,.69,1.2.52.52,0,0,1,.07.27,2.07,2.07,0,0,0,.38,1.18,3.79,3.79,0,0,0,.68,1.15c.26-1.09-.22-2.06-.28-3-.89-1.51-1.33-3.19-2.15-4.68l-.07-1.09A3.9,3.9,0,0,1,388,456.5a2.1,2.1,0,0,0-.38-.57C387.51,455.82,387.37,455.83,387.18,456Zm-2-5.81c.24.38.44.75.69,1.08a24.82,24.82,0,0,0,2,2.66,3.84,3.84,0,0,1,.41.56l1.24,1.82c.17,0,.29,0,.37-.16,0-.7,0-.71-.17-.93a3.55,3.55,0,0,1-.41-.71,10,10,0,0,0-1.09-1.91c-.77-1-1.52-2-2.2-3a1,1,0,0,0-.22-.17.49.49,0,0,0-.64.16Zm7.44,85.68a3.72,3.72,0,0,0,.83.31,1.79,1.79,0,0,0,.63-.14l.79.35c.21-.16.57-.1.65-.48s-.24-.36-.35-.56a6.36,6.36,0,0,1-.31-.76c-.42-.11-.62-.61-1.08-.63s-.47-.67-.9-.79a.64.64,0,0,0-.58.06l-.31.61a1.09,1.09,0,0,1,.21.91A2.28,2.28,0,0,0,392.61,535.85ZM396,470.12c.19-.69.19-.69-.95-3.05a5.35,5.35,0,0,0-.41-2.2,17.37,17.37,0,0,0-1.23-2.43v1.91a4.41,4.41,0,0,0,.71,1.17l-.45.67c.53.14.25.62.44.9a2.88,2.88,0,0,1,.64,1.22c.06.54.67.78.64,1.37A.5.5,0,0,0,396,470.12Zm-55.36,70.7a7.28,7.28,0,0,1,1.11,1.47l.93.16c.34.22.66.4,1,.62s.46.53.74.63.39.65.9.6l-.39-1.42c.16-.34.4-.67,0-1s-1.07.05-1.59.15c-.23-.33,0-.72-.31-1a1.64,1.64,0,0,0-1.07-.08C341.43,541.08,341.11,540.64,340.6,540.82ZM378,518.5c-.23.22-.45,0-.69.07-.07.09-.2.18-.23.31a.79.79,0,0,0,0,.54c.2.46,0,1,.43,1.46l.54.27a1.53,1.53,0,0,0,.67-.71c.09-.45-.25-.79-.3-1.21A2.52,2.52,0,0,0,378,518.5Zm6.64-65.38a7.46,7.46,0,0,0-2.31-3.78.44.44,0,0,0-.2.53.71.71,0,0,0,.2.36c.42.31.54.88,1,1.13.08.58.56.95.78,1.46C384.13,453,384.25,453.12,384.59,453.12Zm-38.43-14.59c-.12.44-.21.74-.29,1.05s-.09.33.34.55c.11.06.18.05.26-.13,0-.69,0-1.47,0-2.25,0-.05-.11-.1-.16-.15C346,438,346,438,346.16,438.53ZM278.84,328.81a10.53,10.53,0,0,0,.33,1.08.29.29,0,0,0,.46.19,2.6,2.6,0,0,0-.42-2Zm11.38,133.68c.28,0,.45-.08.39-.28-.16-.56-.36-1.12-.57-1.66-.07-.18-.23-.29-.39-.12C289.84,461.14,290,461.83,290.22,462.49Zm101.85,30.2c.1-.36-.07-.7.06-1.05a4,4,0,0,0,.06-1.26,2.39,2.39,0,0,0-.18-.5c-.12.62-.2,1.07-.33,1.51A1,1,0,0,0,392.07,492.69ZM346,441.83a3.06,3.06,0,0,0,0,.76.24.24,0,0,0,.42.09.77.77,0,0,0-.08-.89Zm7.13,91.32a.3.3,0,0,0-.34.16c0,.38.22.57.63.56C353.63,533.49,353.35,533.32,353.09,533.15Zm6-91.88a1.81,1.81,0,0,0-.26-.33c-.12-.1-.2-.34-.44-.2C358.56,441.29,358.56,441.29,359.1,441.27Zm-10.83,91.94a1.48,1.48,0,0,0,.2.26.34.34,0,0,0,.2,0s0-.07,0-.11C348.67,533.14,348.54,533.09,348.27,533.21Zm-5.54-4c-.23.1-.37.18-.31.39C342.71,529.71,342.81,529.59,342.73,529.22ZM379,522.74c-.56,0-.56,0-.42.38Zm-86.76-56.4a.21.21,0,0,0-.05.31h.07C292.32,466.55,292.28,466.44,292.2,466.34Zm58.09,67.75a1.19,1.19,0,0,0,.22.08s.06,0,.09-.08-.11-.11-.16-.11S350.34,534.05,350.29,534.09Zm-7.33-24a1.11,1.11,0,0,0,.21.08s.06-.05.09-.08-.1-.12-.16-.12S343,510.07,343,510.12Zm5.36-67.39a.2.2,0,0,0,.06-.32s-.08,0-.09,0A.2.2,0,0,0,348.32,442.73Zm46.92,46.7-.08-.23s-.07,0-.09.06,0,.29.09.26A.23.23,0,0,0,395.24,489.43Zm38.84-103.22-.05.08h.08Zm-96.76,153,.05-.07h-.09Zm13-6.31-.05.07h.07Zm42.52-2.21.08.05v-.08Zm-17.19-9,.06.06v-.09Zm-35-16.92.08.06v-.09Zm-46.2-30.23-.05.08h.07Zm96.25-5.86-.08-.05v.09Zm-101-9.1-.05.09h.08Zm-.28-.84,0,.08h.07Zm95.67-10.08-.08-.05v.08Zm-6.78-5.93-.07-.05v.09Z" transform="translate(-277.5 -39.8)"/><path class="cls-1" d="M331.82,287.12a2.43,2.43,0,0,1-.46,1.46,8.75,8.75,0,0,0-1.1.8,9.51,9.51,0,0,1-2.8,1.77,1.23,1.23,0,0,0-.25.14,8,8,0,0,1-2.82,1.13c-.4.12-.79.27-1.18.42a10.62,10.62,0,0,1-3.55.81,7,7,0,0,1-3.13.79.84.84,0,0,1-.42,0c-.78-.4-1.68-.05-2.47-.4-.17-.08-.41.2-.68.16-.46-.22-.92-.46-1.39-.66a2.54,2.54,0,0,1-1.42-1.47c-.09-.22-.19-.43-.3-.67l-.07-1.45a.66.66,0,0,0-.66-.28h-.76a4.81,4.81,0,0,1-1.82-2.08,9.16,9.16,0,0,1-1.87-.89c-.36.19-.09.87-.72.86l-.09-1c-.2-.3-.49-.2-.68-.33s-.36-.3-.55-.44-.31-.27-.47-.28c-.55,0-.79-.7-1.37-.62l0,0a.77.77,0,0,0-.45-.51,2.23,2.23,0,0,1-1.08-1.06c-.23-.2-.53-.11-.8-.18s-.39-.28-.64-.1c-.21.33,0,.61.09.92a4.34,4.34,0,0,0,3.31,3.1,3.2,3.2,0,0,0,.7.06l1.17,0c.45.26.6.56.46.95-.06.06-.1.12-.13.12l-2.61.08c-.87-.58-1.95-.62-2.58-1.47a7.69,7.69,0,0,1-1.66-2.41c0-.38,0-.75-.08-1.13s-.34-.7,0-1.06a1.83,1.83,0,0,0-.56-.92c-.54,0-1.07-.59-1.85-.28-.7.93-.85,2.19-1.43,3.24s-.75,2.31-1.37,3.36l-.07,1a8.43,8.43,0,0,0-1.33,1.78l-.08,1a12.68,12.68,0,0,0-1.18,2.91,23.15,23.15,0,0,0-1,3.06,1.25,1.25,0,0,0,0,.81c.22.28.42,0,.63,0a.62.62,0,0,1,.4.53c0,.37,0,.75,0,1.05l-.51.76a13.6,13.6,0,0,1-.29,2.23c-.55,2.81-.7,2.68-.59,5.27a14.54,14.54,0,0,0,.39,2.62,1.91,1.91,0,0,0,.57,1.26,10.16,10.16,0,0,0,1.91,3.06,7.14,7.14,0,0,1,.9,1.65,1.92,1.92,0,0,1,.48.13c.19.09.26.25.08.43s-.51-.21-.78-.26c-.24-.55-.8-.75-1.22-1.11a5.16,5.16,0,0,1-1.42-1.72c-.24-.55-.64-1-.91-1.57a9.22,9.22,0,0,1-1.17-4.7c0-.24,0-.47,0-.74a11,11,0,0,1-.82-2.34,10.39,10.39,0,0,0,.57-3.44,1.67,1.67,0,0,1,.12-1,1.28,1.28,0,0,0,0-.82,3.66,3.66,0,0,1,.12-1.08c0-.23.2-.44.2-.66a7.41,7.41,0,0,1,.56-2.45c.28-.78.5-1.59.75-2.39s.7-1.72,1-2.59a5,5,0,0,0,.35-3.67,2.47,2.47,0,0,1,0-1.52,4.08,4.08,0,0,0,0-2.42,3.68,3.68,0,0,1,1.43-2.43,15.44,15.44,0,0,1,1.54-3.39,3.07,3.07,0,0,1,.33-.45,11.09,11.09,0,0,0,2.66-4.39,4.51,4.51,0,0,1,.29-.63c-.18-.91-1.05-1.3-1.5-2,.18-.64.67,0,.93-.24s.73-.1,1.14-.3a10.42,10.42,0,0,0-1.08-1.19l-.41.07a4.6,4.6,0,0,1-1.36-1.47l-.44.13-1.25-.6a.59.59,0,0,1-.09-.62.7.7,0,0,1,.78-.13c.73.28,1.44.63,2.17,1,.46.64,1.25.77,1.88,1.17a1,1,0,0,0,.82,0,2.44,2.44,0,0,0,.47-.85,10.53,10.53,0,0,1,1.79-3.31,2.87,2.87,0,0,0,.28-.48,17.27,17.27,0,0,1,1.75-3,5.88,5.88,0,0,0,.7-1.66,3.43,3.43,0,0,1,.38-.9,11.18,11.18,0,0,0,.9-1.88,1.25,1.25,0,0,0,.12-.54,2.21,2.21,0,0,1,.79-1.73l.59-.64.1-1.1.47-.68a11.81,11.81,0,0,1,.3-2.52,1.59,1.59,0,0,0-.22-1.23,5.25,5.25,0,0,0,.54-2.56c0-.36.16-.68.09-1.08s.23-.68.37-1a2.82,2.82,0,0,1-.09-1.92,5.07,5.07,0,0,0,.17-1.38c0-1.31,0-2.63,0-3.95a2.41,2.41,0,0,1,.2-1.23c.25-.45-.07-.9-.2-1.31,0-.45.36-.79.3-1.25a8.5,8.5,0,0,1,0-1.33l.52,1v2.93c0,.14.05.3,0,.41a2.41,2.41,0,0,0,0,2.16c-.09,1.25.22,2.52-.21,3.76a2.9,2.9,0,0,0-.05.84,2.33,2.33,0,0,1,0,.84,6,6,0,0,0-.25,2.35,2.64,2.64,0,0,1-.18,1.24c-.08.12,0,.35.06.63l-.38.84a2.13,2.13,0,0,0,.1.35,1.55,1.55,0,0,1,.05,1.23,3.82,3.82,0,0,0-.17,1.1,5.08,5.08,0,0,1-.28,1.93.85.85,0,0,0,0,.42,6.28,6.28,0,0,1-.35,2.19,11.12,11.12,0,0,0-.49,2,5,5,0,0,1-.57,1.8l-.05,1.19a6.15,6.15,0,0,0-.86,2.87c-.67.71-.49,1.74-1.09,2.41v1.21c-.25.42-.52.85-.78,1.3,0,.07,0,.18,0,.27l-.85,2.85c.17.36.43.3.65.32l.56,0,.7.52.71.05.65.47a1.21,1.21,0,0,0,.85-.12l.78.66c1.36.47,2.88.53,4.24,1.12a2.8,2.8,0,0,1,2.07-.05,2.45,2.45,0,0,0,1.77-.08c.31,0,.57.34,1,.11a8.18,8.18,0,0,0,.77-2.06c.38-.47.84-.92,1.21-1.47a6,6,0,0,1,2.53-1.93,3.57,3.57,0,0,0,.95.16c.31,0,.62-.21.86,0l3.61-2.19.88-.07a.64.64,0,0,0,.25-.11,5.2,5.2,0,0,1,2-1,.85.85,0,0,1,.69.15l1.06-.47c.69,0,1.45,0,2.2,0a5.5,5.5,0,0,1,2.7.62,7.53,7.53,0,0,0,1.57.57,4.17,4.17,0,0,1,1.62.77,5.68,5.68,0,0,1,2,1.74,3.34,3.34,0,0,0,.59.6,4.54,4.54,0,0,1,.65.74c1.07,1.93,2.86,3.19,4.15,4.72a1.73,1.73,0,0,0,1,.07,1.63,1.63,0,0,0,.64-1.31,1.5,1.5,0,0,1,.65-1.08c.37-.09.77-.18,1.17-.29a2.89,2.89,0,0,1,1.67,0,7.91,7.91,0,0,0,1.88.23,2,2,0,0,0,.89-.94c.26-.44.56-.86.81-1.31a1.1,1.1,0,0,1,.45-.52,2.24,2.24,0,0,0,1-.95,2.25,2.25,0,0,1,.66-.71,8.75,8.75,0,0,0,1.58-1.39,4.51,4.51,0,0,1,1.56-1.18,2.48,2.48,0,0,0,1-.77,2,2,0,0,1,1-.52l.4-.56a14.21,14.21,0,0,1,3.15-1c.21,0,.64.41,1.1,0l2.83-.08a3,3,0,0,1,1.34,1.57,1.59,1.59,0,0,0,.7.85c.25-.17.49-.36.75-.51a6.57,6.57,0,0,1,.88-.44c.3-.12.62-.18,1-.28l.56.49c.31.45.09.92.29,1.34.37.27.9.44,1,1-.28.4-.52.05-.77,0a1.15,1.15,0,0,0-.83.44,4.41,4.41,0,0,0,.62,1.4c.23.44.06.93.23,1.32a.39.39,0,0,0,.44.05c.84-.41,1.71-.75,2.54-1.17a18,18,0,0,0,3.17-1.72,14.43,14.43,0,0,0,2.08-1.42,11.89,11.89,0,0,0,1.41-1.53c.32-.52.75-.95,1.06-1.48a3.72,3.72,0,0,1,1.2-1.33,4.79,4.79,0,0,0,.7-.72l-.22-.73a12.29,12.29,0,0,1,1.35-2.41v-.74c-.79-.32-1.18-1.18-2-1.52a1,1,0,0,1-.39-.39,24.1,24.1,0,0,0-3.07-3.62,4.56,4.56,0,0,1-1-1.92,3,3,0,0,1,1-1.15h.45c.26.17.27.38.16.68l-.64.23a1.43,1.43,0,0,0-.08.37,2.09,2.09,0,0,0,1,1.48,11,11,0,0,1,2.71,3,1.33,1.33,0,0,0,.85.65.41.41,0,0,0,.16-.5c-.07-.22-.18-.43-.27-.64l-.71-1.68c-.31-.72-.66-1.43-.91-2.17s-.78-1.37-1.08-2.11c-.48-1.16-1-2.3-1.5-3.47a3.32,3.32,0,0,0-.42-.71,2.76,2.76,0,0,1-.49-1.43,4.75,4.75,0,0,1-1.23-1.69,5.64,5.64,0,0,0-1.39-1.93c.13-.55-.31-.94-.37-1.42s-.54-.75-.8-1.26l-.48-2-.65-.74a11.36,11.36,0,0,0-1-3.07c-.24-.56-.49-1.11-.69-1.68-.25-.75-.55-1.48-.8-2.23s-.61-1.76-.94-2.62a29,29,0,0,1-1.22-4.28,14.47,14.47,0,0,0-.67-2.27c-.24-.58-.11-1.2-.39-1.77a3.69,3.69,0,0,1-.35-1.78c0-.17-.13-.35-.16-.53a8.76,8.76,0,0,1-.4-2.33,1.33,1.33,0,0,0-.07-.56,17.81,17.81,0,0,1-.78-4c-.06-.37-.17-.72-.25-1.09a10,10,0,0,1-.33-2.49,1.79,1.79,0,0,0-.11-.55,16.51,16.51,0,0,1-.72-3.26s0-.1,0-.14a27.89,27.89,0,0,1-.86-3.38,4.34,4.34,0,0,1-.24-1.51,10.55,10.55,0,0,0-.32-1.64,20,20,0,0,0-.62-2.71,7.49,7.49,0,0,1-.46-2.46,2.34,2.34,0,0,0-.28-1.08,4.42,4.42,0,0,1-.32-1.63l-.4-.61a2.56,2.56,0,0,0,0-1.64,4.06,4.06,0,0,1-.12-1.25.67.67,0,0,0-.34-.57.37.37,0,0,0-.41.3,3.27,3.27,0,0,1-.87,1.53,4.82,4.82,0,0,0-1.24,1.86c-.35.45-.8.52-1.08.86-.84,1-2.1,1.16-3.24,1.53a1.58,1.58,0,0,1-.83-.06c-.45-.12-.88-.3-1.29-.45s-.64.23-1,.22a7.37,7.37,0,0,1-2.74-1c-.26-.33-.51-.66-.76-1a4.2,4.2,0,0,1-.81-3.43,4.23,4.23,0,0,0,.19-1.1,4.11,4.11,0,0,1,.38-1.77c.35-1,.75-1.91,1.14-2.85s.9-1.62,1.31-2.46a12.63,12.63,0,0,0,.88-1.9,4.46,4.46,0,0,1,.41-.89,11.5,11.5,0,0,0,1-2.32c0-.43-.46-.58-.56-1a.59.59,0,0,1,.42-.7c.2.1.16.48.52.39.11-.4-.25-.66-.36-1.09.31-.48.39-1.17,1-1.51.23-.47-.06-1,.23-1.45.67.22.81.81,1,1.44a5.91,5.91,0,0,0-.28,2.35l-1.64,3.66c.07.57-.64.83-.58,1.39s-.57.93-.65,1.53-.48.9-.54,1.43c0,.13-.14.24-.22.36a5.06,5.06,0,0,0-.88,1.73,1.68,1.68,0,0,1-.22.51c-.85,1.12-.86,2.55-1.41,3.78a5.53,5.53,0,0,0,.11,2.36c.08.22.14.45.23.77l1.47,1.36,1,.3a2.71,2.71,0,0,1,1.32-.25,8.17,8.17,0,0,0,3.09-.56,2,2,0,0,0,.48-.26,2.91,2.91,0,0,1,1.43-.64c.57-.41.89-1,1.5-1.2a1,1,0,0,0,.49-.49,4,4,0,0,1,1.59-1.58c.23-.28-.07-.4,0-.53,0-.39.32-.5.48-1l.07-3.38a2.91,2.91,0,0,1,1-1c.22,0,.37.12.38.34a7.24,7.24,0,0,1,0,1.4,14.23,14.23,0,0,0-.21,2.34,1,1,0,0,0,0,.42,8.92,8.92,0,0,1,.31,2.35,15.51,15.51,0,0,0,.43,2.32,6.6,6.6,0,0,1,.14,1.52c.23.59.8.56,1,1a2,2,0,0,1,.07.26,6.43,6.43,0,0,1,.12,1.79,5.17,5.17,0,0,0,.24,1.64c.07.59.2,1.19.33,1.78a4.14,4.14,0,0,1,.15.68,38.89,38.89,0,0,0,.64,4.42c.1.64.37,1.25.53,1.88.47,1.9.93,3.8,1.4,5.69a3,3,0,0,0,.1.55c.65,1.56.78,3.25,1.3,4.84a35.15,35.15,0,0,0,1.3,4.12,6.24,6.24,0,0,1,.39,1.34c.41,1.82,1.14,3.55,1.47,5.39a13.45,13.45,0,0,1,1,2.61c.28.79.49,1.61.73,2.41a15.36,15.36,0,0,0,1,2.92,2.23,2.23,0,0,1,.26.79c.34,2.29,1.55,4.28,2.13,6.49a15,15,0,0,1,1.12,2.57,15.28,15.28,0,0,1,.51,1.58,1.7,1.7,0,0,0,.34.76.65.65,0,0,1,.2.36c0,.76.54,1.27.76,1.92a4.59,4.59,0,0,0,.83,1.76.79.79,0,0,1,.15.53,1.72,1.72,0,0,0,.46,1.15,3.84,3.84,0,0,1,.83,1.45c.4.36.83.14,1.25.42l.8,1.12a7,7,0,0,0,1.19,3.74c.38.68.67,1.42,1.11,2.07a1.56,1.56,0,0,1,.24.65,5.41,5.41,0,0,0,.94,2.06h1.5a1.1,1.1,0,0,1,.68.56v.68l-.77,1a1.26,1.26,0,0,0,.22,1.09c.66.91,1.28,1.84,1.92,2.76a14.88,14.88,0,0,0,1.22,1.53,25.48,25.48,0,0,1,1.62,2.1c.27.34.85.15,1.07.66a17.7,17.7,0,0,0,1.51,4.56,25.31,25.31,0,0,0,1.38,2.49,2.14,2.14,0,0,1-.14,1.33c0,.1,0,.2.09.26a8.24,8.24,0,0,0,1.13,1.44,4.34,4.34,0,0,1,.8,1.3,13.9,13.9,0,0,1,2.64,2.5c.24.28.46.56.68.86a2.63,2.63,0,0,1,.52,2.86,2.68,2.68,0,0,0-.09.74l-1.62.87a2.67,2.67,0,0,1,2,2,3.44,3.44,0,0,0-.33,1.88c0,.7,0,1.41,0,2.1a16.74,16.74,0,0,1-1.44,2.87,12.79,12.79,0,0,0-1,1.82,3.41,3.41,0,0,1-1.09,1.26c-.05,0-.17,0-.26,0-.1-.34.38-.38.35-.52l.09-.88c.14-.11.35-.2.41-.34.45-1.17,1-2.27,1.52-3.42.12-.29.35-.58.27-.93l-.06-.14c-.07,0-.17,0-.22,0-.62.49-1,1.23-1.66,1.67a19,19,0,0,0-1.87,1.48,7.14,7.14,0,0,0-1.85,2.38c-.24.45-.54.86-.8,1.27v1.78l-.54.79v4.49a13.68,13.68,0,0,0,2.19,3.72c.15-.08.31-.12.38-.21a7.77,7.77,0,0,1,1.17-1.53,6.67,6.67,0,0,0,1.08-1.79,4.86,4.86,0,0,1,1.83-2.06c.22-.05.45-.09.59.17a1.08,1.08,0,0,1-.05.27c-.19.32-.42.62-.59.94a7.39,7.39,0,0,1-1.05,1.66,4.64,4.64,0,0,0-.6,1.1,7.84,7.84,0,0,1-1.24,1.86,7.18,7.18,0,0,0-.86,1.41l.18.84a2.56,2.56,0,0,1-.89.9,9.52,9.52,0,0,1-1.21.46,11.3,11.3,0,0,1-2.11,2.77,19,19,0,0,0-1.48,2.18,3.83,3.83,0,0,1-1.43,1.56,2.73,2.73,0,0,1-1.35,1.64,1.34,1.34,0,0,0-.65,1l.53.17a1,1,0,0,1,0,.24c-.24.55-.54,1.08-.73,1.66a4.29,4.29,0,0,1-.67,1c-.35.05-.43-.18-.37-.42.14-.53.34-1,.5-1.54-.2-.16-.28,0-.37.06a4.41,4.41,0,0,0-.92,1.56c-.21.47-.25,1-.49,1.45s.15.72-.06,1.08.06.44.17.65a13.83,13.83,0,0,1,.57,2,7.3,7.3,0,0,1,.22,1,.28.28,0,0,1-.45.11,2.67,2.67,0,0,1-1.21-2.26,2.67,2.67,0,0,0-.09-.69,5.39,5.39,0,0,1,.12-3.3c.18-.53.35-1.06.52-1.58-.17-.3-.37-.16-.59-.07s-.16,0-.43-.15c0-.09,0-.21.06-.26a10.58,10.58,0,0,1,2.07-1.88c.27-.15.43-.48.65-.71a11.32,11.32,0,0,0,1.89-2,2.56,2.56,0,0,1,.68-.71,7.06,7.06,0,0,0,2.43-3.14c.17-.53-.16-1.16.34-1.57.25-.14.38.08.55.09s.28,0,.41,0l2.11-2.56v-.58l-1-1.28-.46-.14a3.76,3.76,0,0,1-1-1.95,4,4,0,0,0-.25-1.37c-.13-.32-.26-.59-.53-.69-.15-.53-.11-1-.25-1.46a3.11,3.11,0,0,1,.47-2.79,10.72,10.72,0,0,0,1.12-2.08,24.09,24.09,0,0,1,1.57-3.13c.28-.34.85-.38,1-.91a.55.55,0,0,1,.26-.32c.81-.39,1.35-1.14,2.12-1.57a5.9,5.9,0,0,0,1.69-1.83,11.14,11.14,0,0,1,.66-1.16,2.42,2.42,0,0,0,0-1.14c-.07-.08-.11-.18-.19-.22a5.3,5.3,0,0,1-1.5-1.25,3.26,3.26,0,0,0-1.29-1c-.2-.56-.38-1.09-.55-1.59.14-.23.33-.27.48-.12.75.75,1.49,1.53,2.26,2.33a.28.28,0,0,0,.31-.3c0-.18,0-.37.06-.54.21-.27.6-.32.76-.73v-2.14a22.86,22.86,0,0,1-1.95-2.26,2.65,2.65,0,0,0-.54-.44c-.15-.11-.36-.18-.44-.33-.48-.87-1.25-1.51-1.79-2.34a17,17,0,0,1-1.63-2.76,2.41,2.41,0,0,0-.91-1c-.54-.36-1.05-.78-1.57-1.17a.45.45,0,0,1-.06-.12.61.61,0,0,1,.79-.39c.51.19.76.7,1.21,1a.45.45,0,0,0,.12-.61c-.32-.72-.68-1.43-1.05-2.13-.09-.16-.29-.23-.58-.2a1.15,1.15,0,0,0-.29.15,11.84,11.84,0,0,1-2.19,1.93,5,5,0,0,0-1.13,1,6.84,6.84,0,0,1-1.25.89,2.48,2.48,0,0,0-.34.43,2.35,2.35,0,0,1-.6.58A4.16,4.16,0,0,0,390,275c-.37.45-1,.72-1.38,1.16-.23.25-.55.33-.78.58s-.83.42-1.11.82-.93.23-1.11.77c-.42.22-.82.46-1.24.65a1.29,1.29,0,0,0-.67.69c-.57.31-1.39.29-1.6,1.1a.46.46,0,0,0,.55.16,9.29,9.29,0,0,0,1-.55c.2-.13.34-.34.54-.45a10.15,10.15,0,0,0,1.37-.65,10.22,10.22,0,0,1,1.16-.78,10.36,10.36,0,0,0,1.5-1,4.57,4.57,0,0,1,1.68-.93.57.57,0,0,1,.33.51,25.11,25.11,0,0,1-3,2.18,17.61,17.61,0,0,0-1.59,1.13,3.78,3.78,0,0,1-.85.48,5,5,0,0,0-1.13.52,10.38,10.38,0,0,1-1.1.57,11.67,11.67,0,0,1-4.43,1.55,2.51,2.51,0,0,0-1,.38,6.14,6.14,0,0,1-2.12,2.72,8.24,8.24,0,0,1-1.9,1.17c-.66.21-1.14.8-1.88.88-.27,0-.36.47-.7.36s-.4.17-.59.26a6.68,6.68,0,0,1-2.45.81c-.21.21-.45.33-.22.69l1.94-.44a.36.36,0,0,1-.1.6,10.65,10.65,0,0,1-1.88.94,7.23,7.23,0,0,1-2.54.7h-.14c-.43.11-.78.43-1.31.33a2.68,2.68,0,0,0-1.36.2,4.91,4.91,0,0,1-1.93.24,3.45,3.45,0,0,1-1.52-.19,1,1,0,0,0-.84.17,15.47,15.47,0,0,0-1.72-.45,3.17,3.17,0,0,1-1.32-.43c-.42-.28-.93-.06-1.34-.36a3.55,3.55,0,0,0-1.17-.42,5.58,5.58,0,0,1-1.62-.76c-.4-.25-.8-.47-1.22-.68a2.92,2.92,0,0,1-1-.71,1.18,1.18,0,0,0-.72-.4,1,1,0,0,1-.48-.26,5.85,5.85,0,0,0-1.71-1.21,2.37,2.37,0,0,1-.64-.55,2.52,2.52,0,0,0-1.26-.84,1,1,0,0,1-.73-.76c0-.31.23-.41.44-.57a10.08,10.08,0,0,1,3.45,2.08,2.4,2.4,0,0,0,1.06.66,3.88,3.88,0,0,1,1.57.89,9.12,9.12,0,0,0,1.42.89,9.28,9.28,0,0,1,1,.58,12.32,12.32,0,0,0,3.34,1.36.83.83,0,0,1,.27.07,6.22,6.22,0,0,0,3.29.51c.42,0,.79.21,1.23.08a4.78,4.78,0,0,1,1.26-.07l1.13-.05c.48-.18.51-.56.75-.87a5.42,5.42,0,0,1,.8-.43c1.08-.4,2-1.14,3.23-1.23a2.44,2.44,0,0,0,.76-.34,10.36,10.36,0,0,1,1.42-.59,5.21,5.21,0,0,0,1.38-.64,5.89,5.89,0,0,1,1.52-.71,4.45,4.45,0,0,0,2-1.23,3,3,0,0,1,1-.77,1.19,1.19,0,0,0,.66-.79,1.78,1.78,0,0,0-1.33-.61c.34-.72,1.24-.57,1.58-1.26a4.25,4.25,0,0,0-1.13-2.29c-.26-.24-.42-.61-.75-.81-.44-1-1.38-1.17-2.16-1.49-.51.12-.46.68-.87.78-.2,0-.3-.1-.42-.27-.25-.37-.2-.81-.34-1.18a.52.52,0,0,0-.52-.18,1.71,1.71,0,0,1-1.28-.45l0-.28a1.76,1.76,0,0,1,1.47.06c.37-.25,1-.05,1.18-.73a2.1,2.1,0,0,0-1-1.07,1.81,1.81,0,0,0-1.69-.25l-.65.43H367a.76.76,0,0,1-.52-.82c.07-.41.56-.56.74-.95a1.06,1.06,0,0,0-.4-.69,14.47,14.47,0,0,1-2.2-2.06,1.59,1.59,0,0,1-.09-1.09c.17-.21.38-.45.59-.69s.35-.49.58-.6a10.76,10.76,0,0,0,2.44-2.21l0-.47a3.71,3.71,0,0,0-.8-.95,11,11,0,0,0-2.49-1,24.14,24.14,0,0,1-3,1.21,4.9,4.9,0,0,0-1.18.73l-1.12.72-.61.84c.22.26.53.08.89.26.12.1.35.26.55.45a4.82,4.82,0,0,1,.4.48c0,.27,0,.45-.15.59-.75,0-1.37-.59-2.21-.44a5.06,5.06,0,0,1-1.43,1c-.65.24-.92.89-1.41,1.32a5,5,0,0,0-.69,1,1,1,0,0,0,.79,1.05c.62.13,1,.63,1.63.77a.86.86,0,0,1,.62,1.12,12.3,12.3,0,0,1-2.6-.91c-.22-.08-.43-.21-.65-.27a.72.72,0,0,0-.75.17l-.63,1.56.33,1.48-.22.25c-.36,0-.34-.52-.82-.67l-.65-.06a1,1,0,0,1-.46-.64,6,6,0,0,0,.27-2.52,5.44,5.44,0,0,0-3.1-.48,1.13,1.13,0,0,0-.65.76l-.83,2.22-1.2.39a1.2,1.2,0,0,1-.34,0,7.07,7.07,0,0,1-2.08-1.55c-1-1.15-2.25-2.12-3.19-3.38-.26-.35-.69-.59-1-.94s-.86-1-1.26-1.46a11.73,11.73,0,0,0-2.75-2.15A1.18,1.18,0,0,0,335,266a5.15,5.15,0,0,1-.68-.15c-.3-.12-.6-.38-.89-.38-.76,0-1.45-.33-2.21-.33a6.57,6.57,0,0,0-2.46.38c-.13.05-.26.16-.39.16-.52,0-1,.23-1.5.22a.81.81,0,0,0-.53.2,10.6,10.6,0,0,1-1.56.61c-.23.21-.56.55-.93.83s-.75.34-1,.57a.51.51,0,0,0,.22.58,5.67,5.67,0,0,1,1.68,2.39c.07.17.16.34.27.57a4.28,4.28,0,0,0-.24,1.88c-.65-.18-.6-.71-.86-1a3.72,3.72,0,0,0-1.55-3.34c-.72-.26-1,.34-1.42.58a5.17,5.17,0,0,0-1.75,2.57c.19.5.8.42,1,.86a.59.59,0,0,1,0,.56l-.64.26a1.78,1.78,0,0,0-.05,1.16c.23.41.64.45,1,.66l.4,0a5.62,5.62,0,0,1,1.52.16,2.17,2.17,0,0,0,1.9-.19,4.24,4.24,0,0,0,1.52.3c.7,0,1.41,0,2.11,0a6.13,6.13,0,0,1,1.94.22c.56.19,1.2,0,1.79.29.17.07.43-.1.72-.17l.2,0a19.69,19.69,0,0,1,2.45.5,9.63,9.63,0,0,0,2.49.29,1.82,1.82,0,0,1,.7,1l-.28.33a2.44,2.44,0,0,1-.39-.06,3.67,3.67,0,0,0-1-.34c-.52,0-1-.19-1.51-.14a2.72,2.72,0,0,1-1.65-.22,1.25,1.25,0,0,0-.55,0c-.29,0-.51.3-.8.18a.81.81,0,0,0-.8,0,.41.41,0,0,1-.27,0,7.64,7.64,0,0,0-3.71,0s-.1,0-.13,0c-.73-.44-1.45,0-2.17,0a2.92,2.92,0,0,1-1.65-.17.47.47,0,0,0-.4,0,2.11,2.11,0,0,1-1.14.12,4.39,4.39,0,0,0-3.26-.7s-.05.15-.09.26a12.71,12.71,0,0,1,1.24.57.68.68,0,0,1,.28.93c-1.15.32-2.38,0-3.66.14-.4.54-1.2.5-1.78,1a1.81,1.81,0,0,1-.63,1.11,4.55,4.55,0,0,0,.56,2.17,7,7,0,0,1-.7,1.82c-.22.22-.43-.12-.7,0a2.09,2.09,0,0,0,0,.65,5.86,5.86,0,0,0,.39.89,2.47,2.47,0,0,0,.78,1l.31-.06c.11.28.22.57.35.85a2.57,2.57,0,0,0,1.9,1.53,4.82,4.82,0,0,1,1,.36c.17.07.34.21.51.21a4.69,4.69,0,0,1,1.74.57,7.5,7.5,0,0,0,2.62-.23,1.06,1.06,0,0,1,.56,0,3.89,3.89,0,0,1,.6.16,4,4,0,0,1,2.14-.79c.26-.55.88-.32,1.28-.6a16.6,16.6,0,0,0,1.46-.84c.39-.32.88-.52,1.29-.82s.77-.69,1.18-1.06h.67Zm38.65-18.61c0,.06,0,.29.19.13l-.2-.12a.89.89,0,0,0-.42-1C369.88,268.14,369.87,268.14,370.47,268.51Zm-69.12,15c-.05-.05,0-.28-.18-.12l.2.1a2.85,2.85,0,0,0,.31.46,13.71,13.71,0,0,0,2.6,1.83l.38-.19a.42.42,0,0,0-.2-.52c-.93-.43-1.8-1-2.69-1.49A1.42,1.42,0,0,0,301.35,283.47Zm77.44-14.93c-.94,1.15-2.45,1.27-3.42,2.18l-1,.09-1.09.73a5.07,5.07,0,0,1-.34,1.93c-.18.61-.35,1.23-.5,1.77.19.54.74.71.82,1.12-.13.46-.56.21-.78.61a6,6,0,0,1,2.62,2,7.8,7.8,0,0,1,1.71,3,1.8,1.8,0,0,0,1.12,0c.43-.21.45-.77.93-.88a3.35,3.35,0,0,0,.9-.37c.32-.19.59-.45.9-.66.58-.38,1.22-.7,1.76-1.13a13.41,13.41,0,0,1,2.23-1.43,3.31,3.31,0,0,0,1.25-.88,1.53,1.53,0,0,1,.42-.38,16.91,16.91,0,0,0,2.44-1.86,3,3,0,0,1,.87-.41c.33-.26.43-.69.82-.94a23.15,23.15,0,0,0,4.1-3.36l.7-.69a1.43,1.43,0,0,1,.82-.5c.47-.07.68-.44.89-.84a17.78,17.78,0,0,0-2.38-3.31l-.89.77-1.2-.37a1.72,1.72,0,0,1-1.06-.87c-.4-.9-1.18-1.59-1.35-2.6,0-.12-.16-.22-.27-.36a8.8,8.8,0,0,1-2.44,1.9,24.8,24.8,0,0,1-3.95,2.88A16.31,16.31,0,0,1,380,268c-.2.08-.22.42-.23.42Zm-71.46,16.94c.32-.3.63-.57.93-.87.73-.73,1.46-1.45,2.17-2.2A15.74,15.74,0,0,0,312.6,280c.18-.29.61-.42.87-.68A4.44,4.44,0,0,1,316,278c0-.55-.42-.74-.8-1h-1.65a2,2,0,0,1-.83-.06,11.91,11.91,0,0,0-2-.46c-.65-.2-1.37-.12-2.07-.26a8.86,8.86,0,0,1-2.17-.41c-.66-.33-1.42-.31-2.07-.69a4.85,4.85,0,0,0-1.32-.42,12.74,12.74,0,0,1-3-1.17.66.66,0,0,0-.53-.13c-.57.22-.61.91-1.09,1.24l-.89.18-.68,1v1.5l-.45.58a.63.63,0,0,0,0,.72l3,2c.54.37,1.08.73,1.61,1.12s1.2.48,1.75.85c.07.05.17.07.25.12,1.27.87,2.61,1.62,3.82,2.58A1.77,1.77,0,0,0,307.33,285.48Zm4.85,6.91c.52.17,1.06.32,1.58.52a1.32,1.32,0,0,0,.95.07,1.35,1.35,0,0,1,.93,0,2.6,2.6,0,0,0,1.38,0,8.22,8.22,0,0,1,2.36-.26c.05,0,.1-.1.16-.15-.35-.23-.75,0-1.1-.17s-.43-.54-.84-.33a6.74,6.74,0,0,1-2.49-1.19,11.28,11.28,0,0,0-1.12-.84,5.13,5.13,0,0,0-1.7-.63,1.1,1.1,0,0,0-1,.12,6.69,6.69,0,0,0,0,1.55A2.81,2.81,0,0,0,312.18,292.39Zm-5.6-18.63a7,7,0,0,0-1.12-.62,9,9,0,0,0-1.48-.29c-.08,0-.17,0-.31.08-.83-.65-2-.63-2.89-1.25a.65.65,0,0,0-.67,0c0,.05,0,.1,0,.12a3.78,3.78,0,0,0,2.43,1.2,1.13,1.13,0,0,1,.53.16,10.11,10.11,0,0,0,2.39.77,26.89,26.89,0,0,0,3.66.82c.36.3.74-.07,1.06,0,1,.25,2,.3,3,.62a2.28,2.28,0,0,0,1.34.07c.12-.49.19-.89-.23-1.21a2.38,2.38,0,0,0-1.1-.11h-2.68a2.52,2.52,0,0,1-.83-.09,3.5,3.5,0,0,0-1.24-.19,3.23,3.23,0,0,1-1.37-.21C307,273.59,306.72,273.72,306.58,273.76Zm62.33-1.71,1.48-.87c.06-.25.11-.43,0-.6s-.05-.08-.09-.1a3.05,3.05,0,0,1-1.59-2.29c0-.28-.08-.67-.48-.76a8.19,8.19,0,0,0-2,2l0,.61A6.08,6.08,0,0,0,368.91,272.05Zm-66.78-10.74c-.06,0-.11,0-.14,0-.71.55-.77,1.54-1.43,2.13a7.08,7.08,0,0,1-1.31,2.56,1.61,1.61,0,0,0-.31.61,12.34,12.34,0,0,1-.63,1.95c.41.47.4.48,1.22.73a6.75,6.75,0,0,0,.7-1.93,3.52,3.52,0,0,1,.82-1.87,2.82,2.82,0,0,1,.35-1.63c.34-.46.12-1.11.6-1.53A.88.88,0,0,0,302.13,261.31Zm15.79,11.91.71-2.55c.3-.4.54-.68.73-1a.38.38,0,0,0-.09-.51,1.06,1.06,0,0,0-.29,0c-.41.28-.69.75-1.17.9a5.4,5.4,0,0,1-1.15,1.72,1.24,1.24,0,0,0,.08,1C317.05,273.1,317.53,273,317.92,273.22Zm-7.38,14a1.66,1.66,0,0,0,.31-.47,4.57,4.57,0,0,0,.25-2.62l-1.47.72c0,.6-.6.84-.86,1.34A2.75,2.75,0,0,0,310.54,287.2Zm-20.17-3.11c0,.55,0,1.21,0,1.87,0,.06.09.12.17.22.34-1,.52-2.13,1.46-2.81,0-1.11.53-2.07.6-3.12a.35.35,0,0,0-.41.13c-.12.14-.33.29-.33.44,0,.61-.57.94-.7,1.51A9.81,9.81,0,0,1,290.37,284.09Zm28.3-8.35c0-.07.14-.17.12-.22-.19-.51-.38-1-.61-1.53a.68.68,0,0,0-.84-.36l-1,.69a1.69,1.69,0,0,0,0,1.09s.07.06.12.11C317.21,275.72,318,275.39,318.67,275.74Zm51.7-3.06a.82.82,0,0,0-.11.84,2.05,2.05,0,0,0,1.33.8,4.22,4.22,0,0,0,.55-1.56.52.52,0,0,0-.18-.51C371.35,272,370.9,272.4,370.37,272.68Zm15.43-10.8a.49.49,0,0,0,.63.06,5.93,5.93,0,0,0,2.24-2l-.08-.11a2,2,0,0,0-1.06,0A4.57,4.57,0,0,0,385.8,261.88Zm5.7-1.4a3.82,3.82,0,0,0,1.71,2.92c.29,0,.33-.15.32-.46A10.58,10.58,0,0,1,391.5,260.48Zm-18.93,7.35a.45.45,0,0,0,0-.63,2,2,0,0,1-.5-1.27.82.82,0,0,0-.17-.32.56.56,0,0,0-.8,0c-.05.67.57,1,.77,1.58A1.29,1.29,0,0,0,372.57,267.83Zm-76.14,5.73a1.79,1.79,0,0,0,.44-.13c.16-.1.35.15.49-.05s.28-.58.17-.92l-.39-.49a1.17,1.17,0,0,0-.8.66A1.25,1.25,0,0,0,296.43,273.56Zm-1.53,6.2a10.6,10.6,0,0,0,.85.73.47.47,0,0,0,.74-.07,4.86,4.86,0,0,1-1-1.26c-.06-.09-.23-.12-.32-.17C294.81,279.13,294.88,279.37,294.9,279.76Zm80.81-55.18c0,.08-.13.16-.12.24a4.13,4.13,0,0,0,.72,1.67,3.37,3.37,0,0,0-.31-1.86Zm13.91,33.79a.7.7,0,0,0-.41-.48c-.2.16-.57.1-.63.46.42.73.45.75.71.68Zm-92.17,12.18c.36.6.89.44,1.32.72C298.57,270.69,298.4,270.6,297.45,270.55Zm10.81,17.56c.48.52.49.52,1.14.25C308.93,288,308.93,288,308.26,288.11Zm71.08-52.71a.41.41,0,0,0,0-.63A.46.46,0,0,0,379.34,235.4ZM368.45,263l-.1-.24s-.1.06-.09.08a1.21,1.21,0,0,0,.08.25Zm10.07-30.14c-.15.07-.14.18-.06.3a.11.11,0,0,0,.08,0C378.65,233,378.6,232.9,378.52,232.81Zm-4.19-12.38-.07-.06v.09Zm4.74,13.75-.05.08h.08Zm-59.23,34.7,0,.07h.08Zm52.46.12.05-.07h-.08Zm-76.79,6.7.08.05v-.09Zm69.13,15.51.06.05,0-.08Z" transform="translate(-277.5 -39.8)"/><path class="cls-1" d="M303.33,89.68c.35-.08.51-.39.77-.66l.14-.85a1.63,1.63,0,0,1,.69-.58c.18-.29.05-.78.6-.9a2.93,2.93,0,0,1-.1,1.63,1.45,1.45,0,0,0-.11.54,1.58,1.58,0,0,0,.06.36c.17.22.37.17.54.17.46-.21.68-.64,1-1.07a7.44,7.44,0,0,0,1.76-.1,4.38,4.38,0,0,1,1.79-.17,6,6,0,0,1,2.12,1.86c-.81.18-1.25-.4-1.79-.7s-1.32.06-1.93-.27c-.57.19-1.06.61-1.71.45a5.46,5.46,0,0,1-1.48,1.17,2.6,2.6,0,0,1-.63,1.64l-.5.34c0,1-.59,1.95-.26,3l.63-.14.32.58L304,98.53c0,.14.16.3.12.4a9,9,0,0,0-.22,2.79,11.43,11.43,0,0,0,.05,2.11,8.75,8.75,0,0,0,.59,1.86,3.41,3.41,0,0,0,2,2.22,3.31,3.31,0,0,1,1.32.76,4,4,0,0,0,.9.51h1.42a.49.49,0,0,1,.09.71,4.6,4.6,0,0,0-1,.27c-.37.21-.74-.27-1.09.1l-1-.49c-.16-.06-.32,0-.53.14a7.29,7.29,0,0,1-2.05-1.37c-.29-.3-.62-.55-.92-.84a4.07,4.07,0,0,1-.84-1.75,10.4,10.4,0,0,0-.79-2c-.05-1-.08-1.91-.12-2.83l-.36,0-.44.77v1.45l-.53.75v2.33c.25.4.8.11,1,.57.18.64.4,1.31.54,2,.18.86.25,1.75.43,2.61.13.6-.34,1.12-.09,1.78a4.41,4.41,0,0,1,.07,1.67,2.84,2.84,0,0,1-.16,1.38,1.73,1.73,0,0,0-.06.69c0,.71,0,1.41,0,2.11a16.94,16.94,0,0,1-.37,2.77,8.57,8.57,0,0,0-.21,1.66,1.45,1.45,0,0,1,0,.42,7.91,7.91,0,0,0-.26,3.06c0,1.27,0,2.54,0,3.81a2.79,2.79,0,0,1-.17,1.24,1.75,1.75,0,0,0-.08.69c0,3.38,0,6.77,0,10.15,0,1,.28,2,.37,3.05,0,.18.18.35.09.53a2.54,2.54,0,0,0,.12,2c.05.18.12.35.19.57l-.16.65a30.09,30.09,0,0,1,1.08,4.45,13.29,13.29,0,0,0,.76,2.39c.34.82.79,1.59,1.09,2.43a10.16,10.16,0,0,0,.85,1.45c.54,1,1,2,1.61,2.93s1.08,1.63,1.61,2.46c.23.34.57.61.6,1.09,0,.19.25.38.4.55l.62.71c0,.23.1.42-.06.58a2.57,2.57,0,0,1-1.51-1.17q-1.29-1.92-2.68-3.76a5.56,5.56,0,0,1-.48-.86c-.51-1-1-2-1.51-3a2.9,2.9,0,0,0-.42-.73,4.44,4.44,0,0,1-1.2-2.63c-.07-.36-.08-.36-.6-.64-.05.07-.14.15-.13.21a15.75,15.75,0,0,1,.49,2.46,4.73,4.73,0,0,0,.23.66,4.31,4.31,0,0,1,.33,1.63,1,1,0,0,0,.09.55,6.91,6.91,0,0,1,.3,1.62,17.3,17.3,0,0,1,.5,3.63c.22.36.43.51.74.33s.51-.24.77,0,.11.72.1,1.08a5.6,5.6,0,0,0-1.39,1.95,9.57,9.57,0,0,1-.27,3,7.27,7.27,0,0,1,.8,1.45c-.31.6-.95,1.13-.74,2,.13.32.65.32.76.88s-.37.91-.41,1.49c.2.89.57,1.74.78,2.66a2,2,0,0,0,2.13,1.67,2.48,2.48,0,0,1,1.65.64c-.08.09-.13.19-.18.2l-1.17.07c-.27.18-.22.37-.21.62a7.31,7.31,0,0,0,1.48,1.39c.59.35,1,1,1.66,1.28.12.06.21.2.34.25a5.23,5.23,0,0,1,1.89,1.38c.66.14,1.23.56,1.86.38a4.37,4.37,0,0,1,1.37.8,8.31,8.31,0,0,0-2.05.23c-.42-.25-.39-.82-.89-1l-.45.1a7.25,7.25,0,0,0-2.39-.87,3.41,3.41,0,0,0-.69-.56,4,4,0,0,1-1.89-1.61,1.21,1.21,0,0,0-.4-.38,9.57,9.57,0,0,1-2.37-2.38,1,1,0,0,0-.28-.21c-.29,0-.38.15-.55.36a7.44,7.44,0,0,0,.06,2.3,1.8,1.8,0,0,1,0,.8,4.63,4.63,0,0,0-.09,1.12V196a2.3,2.3,0,0,0,0,.7,8.77,8.77,0,0,1,.23,2.79,15.6,15.6,0,0,0,.26,1.94,6.88,6.88,0,0,0,.22,1.8,2.34,2.34,0,0,1,.08.84,3.47,3.47,0,0,0,.18,1.1,1.74,1.74,0,0,1,.09.82,7.38,7.38,0,0,0,.37,2.77,29.35,29.35,0,0,1,.79,4.54c.19,1.34.42,2.67.64,4s.65,2.53.83,3.83a10.57,10.57,0,0,0,.48,1.61c.28.93.35,1.91.56,2.87.15.67.29,1.36.45,2a2.1,2.1,0,0,1,.13.68,4,4,0,0,0,.31,1.5,2.58,2.58,0,0,1,.21.67,19.06,19.06,0,0,0,.32,3.19,3.91,3.91,0,0,0,.24,1.79c0,.08,0,.19,0,.28.15.55-.3,1-.07,1.64a4.85,4.85,0,0,1,.07,1.67.84.84,0,0,1-.09.25l-.25.08c-.37-.26-.23-.7-.3-1a10.62,10.62,0,0,1-.44-3.31c.11-.91-.35-1.74-.33-2.63a14.75,14.75,0,0,1-.53-2.74,13,13,0,0,0-.68-2c-.31.42-.06.88-.3,1.3l-.43-.77a8.35,8.35,0,0,0-.57-3l.28-.81a7.09,7.09,0,0,1-.26-.93,7.94,7.94,0,0,1-.05-1l-.4-.59c-.26-1.5-.46-2.88-.77-4.24a6.44,6.44,0,0,1-.2-1.23,4.57,4.57,0,0,0-.24-1.79,2.33,2.33,0,0,1,0-.84,2.93,2.93,0,0,0-.19-1.24,1.25,1.25,0,0,1-.09-.55,26.87,26.87,0,0,0-.53-3.58,10.47,10.47,0,0,1-.35-2.5c.05-.55-.32-1.06-.26-1.65a4.14,4.14,0,0,0-.23-1.51,5.43,5.43,0,0,1,0-1.4,8.54,8.54,0,0,0-.17-1.81,10.42,10.42,0,0,1-.15-2.24,10.22,10.22,0,0,0-.22-3.07.74.74,0,0,1,0-.55,3.63,3.63,0,0,0,.18-1.66q0-1.69,0-3.39c0-.23,0-.46,0-.69-.27,0-.41.17-.43.35a3.48,3.48,0,0,1-.46,1.45c-.24.39-.1.85-.23,1.24-.51,1.45-.59,3-1.05,4.46,0,1-.44,2-.33,3.06a4.17,4.17,0,0,1-.38,2.17c-.23-.12-.24-.37-.35-.56.08-.26.27-.54.12-.8a2.82,2.82,0,0,1-.24-1.51c0-.56,0-1.13,0-1.69a9.1,9.1,0,0,1,.23-1.94c.21-1,.48-2,.61-3a16.45,16.45,0,0,1,.62-2.56,8.57,8.57,0,0,0,.51-2.59,4.65,4.65,0,0,1,.45-1.47,2.42,2.42,0,0,1-.16-1.1,4.59,4.59,0,0,0-.25-2.07,2.32,2.32,0,0,1,0-.84c0-.61,0-1.22,0-1.83a2.16,2.16,0,0,0-.23-1.24c.31-2,.61-3.88.93-5.91a3.66,3.66,0,0,0,.68-2.48c0-.52,0-1,0-1.55a4.11,4.11,0,0,0-.14-1.25,14.67,14.67,0,0,0-.19-1.52,10,10,0,0,1-.25-2l-.5-1.15a6.13,6.13,0,0,0-.37-2.57c-.33-1.13-.44-2.28-.71-3.41a9.87,9.87,0,0,1-.07-2.11c0-.85,0-1.69,0-2.62l-.53-1.13.5-1.14a9.72,9.72,0,0,0-.21-3.17,1.18,1.18,0,0,1,0-.42,4.43,4.43,0,0,0-.29-2.07,6.56,6.56,0,0,0-.33-2.2,19.27,19.27,0,0,1-.28-2.51,5.93,5.93,0,0,1-.16-1.23,7.37,7.37,0,0,0,.15-1.24c0-1.27.05-2.54.05-3.81a12.26,12.26,0,0,1,.45-2.89c0-.09.09-.18.08-.26-.08-1,.34-1.93.31-2.92a8.18,8.18,0,0,1,.47-2.45,7.4,7.4,0,0,0,.39-2.33,4.74,4.74,0,0,1,.23-2.21c-.14-1,.53-1.91.15-2.89a21.18,21.18,0,0,0,.13-4.21,5.9,5.9,0,0,0-.13-1.11,11.6,11.6,0,0,1-.13-2,1.71,1.71,0,0,0-.48-1.23c-.21,0-.3.08-.27.22a1.47,1.47,0,0,1,0,1.07c-.21.5,0,1.12-.26,1.64,0,.06,0,.18,0,.27a18.81,18.81,0,0,1,.14,4.62.22.22,0,0,1-.27.21c-.08-.07-.19-.13-.19-.19,0-.61-.34-1.16-.35-1.78a4.58,4.58,0,0,0-.21-2.08c.31-.89-.34-1.85.18-2.72,0-.85.07-1.69,0-2.54a6,6,0,0,1,.26-1.51c.09-.44-.09-.94.21-1.36a17.18,17.18,0,0,0,.39-2.71l.52-1.08a4.85,4.85,0,0,0-.11-1.58,10,10,0,0,1-1,2.53,12.41,12.41,0,0,0-.82,2.79c-.36,1.4-.7,2.8-1,4.2a2.08,2.08,0,0,0-.11.54,15.78,15.78,0,0,1-.46,2.9,20.77,20.77,0,0,0-.13,2.1,4.3,4.3,0,0,1-.19,1.66,2.4,2.4,0,0,0-.07,1c0,2.21,0,4.42,0,6.63a2,2,0,0,1-.1.82,3,3,0,0,0-.16,1.25,6,6,0,0,1-.83,3.63l-.07.94c-.26.5-.49,1-.75,1.41a2.12,2.12,0,0,1-.4.39,1.53,1.53,0,0,1-1-.56,1.31,1.31,0,0,1-.09-.81c0-.44.39-.87,0-1.33.41-.58.12-1.29.34-1.9,0-.11.19-.19.37-.36a4.88,4.88,0,0,1-.15,2.53,1.09,1.09,0,0,0,.1.25,1.24,1.24,0,0,0,.21.18c.08,0,.21,0,.24-.08a7.83,7.83,0,0,0,.79-2.79,7.31,7.31,0,0,1,.24-2.08,1.63,1.63,0,0,0,0-.7,24.89,24.89,0,0,0-.12-4.05c.15-.65-.27-1.25-.16-1.92.07-.39-.15-.83-.08-1.22a10.69,10.69,0,0,0,.1-1.26,30.73,30.73,0,0,1,.7-4.68,5.4,5.4,0,0,0,.14-1,5.81,5.81,0,0,1,.3-2.07c.31-.83.23-1.74.52-2.59s.37-1.63.58-2.44c.31-1.21.75-2.39.95-3.64a25.49,25.49,0,0,0,1.16-3.42,2.41,2.41,0,0,0,.05-1.65,4.35,4.35,0,0,1-.16-1.38c0-.75,0-1.5,0-2.26a6.42,6.42,0,0,1,.43-2.74,1.71,1.71,0,0,0,.13-.54,5,5,0,0,1,.82-2.35c0-.08.17-.15.17-.22a5.32,5.32,0,0,1,.89-2,.93.93,0,0,0,0-.94,2.49,2.49,0,0,1-.2-1.37,1.81,1.81,0,0,1,.59-1.38,6.21,6.21,0,0,0,1.12-1.43A7.66,7.66,0,0,1,304.94,75a7.06,7.06,0,0,0,.92-1c.25-.34.75-.41.88-.87a.58.58,0,0,1,.28-.28,3.34,3.34,0,0,0,1.33-1.92,1.61,1.61,0,0,0-.09-1.23c-.48-1.26-.91-2.54-1.36-3.81l-.38-1a5,5,0,0,1-.36-2.2,19.76,19.76,0,0,0-.33-2.77c-.28-.42.07-.88-.16-1.35a3.73,3.73,0,0,1-.09-1.39,8.28,8.28,0,0,0,0-1.41,9.75,9.75,0,0,1-.12-1.2,4.71,4.71,0,0,0-.11-1.35,1.5,1.5,0,0,1,0-.56,13.22,13.22,0,0,0-.45-3.32,10.06,10.06,0,0,1-.05-3,3.41,3.41,0,0,0,.23-1.79c0-.42,0-.84,0-1.26s.33-.46.51-.82l.12-1.56a.76.76,0,0,1,.78-.48,2.14,2.14,0,0,1,.78.21c.32.06.51-.33.69-.24a1.69,1.69,0,0,1,1,.48c-.28.09-.54.19-.8.26s-.42-.23-.66,0c-.32.47.3.85.13,1.4l-.39.48a2.73,2.73,0,0,1-.05,1.76,2.76,2.76,0,0,0-.09,1.25c0,.51,0,1,0,1.55s-.16,1-.19,1.48a7.91,7.91,0,0,0,.16,3.21,4.25,4.25,0,0,1,.09,1,5.15,5.15,0,0,1,.81,1.49,16,16,0,0,0,2.39,4.56,8.26,8.26,0,0,1,1.36,1.94.31.31,0,0,0,.09.11A15.65,15.65,0,0,1,315,66.83c0,.08.08.17.12.25a13,13,0,0,0,.19,2.5,3.65,3.65,0,0,0-.51,1.68c-.4.41-1,.5-1.28,1.24l-.12,2.42c-.63-.21-.77-.71-.9-1.32l-.28.75-.49-.16-1,.66a3.65,3.65,0,0,0-.51,1.22l-.57.13c-.44,1.59-1.73,2.67-2.68,4.25l-.06.48c-.11.32-.64.42-.54.89l-.73.92a4.41,4.41,0,0,0-.38,2.16,7.45,7.45,0,0,1-.95,1.68c-.32.33-.07.83-.37,1.18a3.25,3.25,0,0,0-.57,1,3.9,3.9,0,0,0-.07,1c-.36.14-.4.46-.47.79l.29.46s.05,0,.16,0Zm7.51-27.62a1.2,1.2,0,0,0-.18.84c0,1.17-.05,2.35,0,3.51,0,.85-.31,1.65-.28,2.49,0,.22-.18.43-.21.66a2.56,2.56,0,0,0,.89,2.55c.65-.13.82-.85,1.46-.93a1.28,1.28,0,0,0,.82,0l1-2.1a4.53,4.53,0,0,0,0-.91A19.9,19.9,0,0,0,312,63,2.07,2.07,0,0,0,310.84,62.06Zm-4-6.08c-.13.66.16,1.35,0,2a.83.83,0,0,0,0,.27.88.88,0,0,0,.06.28,3.31,3.31,0,0,1,.15,1.65c0,.59.36,1.08.3,1.64a9.14,9.14,0,0,0,.37,2.33c0,.23.17.44.18.66a11.9,11.9,0,0,0,1,3.15c0,.06.16.09.24.14.24-.28.12-.62.15-.93a5,5,0,0,1,.11-1.1,4.08,4.08,0,0,0,.16-1.38c0-1.08,0-2.15,0-3.23v-1.8a14.18,14.18,0,0,1-2.38-3.79Zm.48,17.47a5.44,5.44,0,0,1-.91,1.23,2,2,0,0,0-.84,1.24c0,.2-.26.38-.42.54a20.82,20.82,0,0,0-2,2.27c0,.35-.14.73.19,1a1.5,1.5,0,0,0,1-.68A2.8,2.8,0,0,1,305.64,78l.18-.06c.61-.16.91.18,1.3.16a2.5,2.5,0,0,0,1.13-1.37,3.62,3.62,0,0,1,.8-1.25c.43-.6.9-1.17,1.29-1.69a1.81,1.81,0,0,0-.49-1.63.6.6,0,0,0-.65-.16,5.58,5.58,0,0,1-1.22,1.3Zm-5.67,12a2.59,2.59,0,0,1,0,1c-.31.65-.16,1.38-.45,2a2,2,0,0,0,0,1.38,2.38,2.38,0,0,0,.26.4A42.14,42.14,0,0,1,303.17,86a1,1,0,0,0,.15-.39c.09-1.13.94-1.89,1.4-2.84.81-.54.71-1.6,1.32-2.25,0,0,0-.08,0-.12a.55.55,0,0,0-.53-.31c-.2.36-.58.1-.94.13-.06.17-.06.43-.18.5-.67.41-.94,1.13-1.39,1.7a3.42,3.42,0,0,0-.71,1.64A2.78,2.78,0,0,1,301.62,85.44ZM306,46a5.54,5.54,0,0,0,.41-1.68c.05-.16-.07-.26-.23-.24s-.15.09-.25.16A7.71,7.71,0,0,0,306,46Zm-4.18,53.73a.9.9,0,0,0,.08-.21s0-.07-.07-.1-.11.1-.11.14S301.76,99.66,301.79,99.72Z" transform="translate(-277.5 -39.8)"/><path class="cls-1" d="M347.35,135.93l-.48-.16a.53.53,0,0,0-.31.47,11,11,0,0,0,.14,2.8,3.47,3.47,0,0,1-.08,1.8c-.3,1.24-.46,2.53-.67,3.8a5.29,5.29,0,0,1-.05.56,2.6,2.6,0,0,0-.23,1.23c.09.4.21.8.34,1.27l1.51,1.57c.19.22,0,.8.55.95,0,0,.07,0,.09-.05A8.12,8.12,0,0,0,349,148a5.22,5.22,0,0,1,.11-.69,8.83,8.83,0,0,0,.44-1.47,31.08,31.08,0,0,0,.33-3.86c0-1.32,0-2.63,0-3.95a3.64,3.64,0,0,0-.17-1.39,1.44,1.44,0,0,1-.07-.55,12.55,12.55,0,0,0-.8-4.24c-.29-.87-.4-1.81-.66-2.7a16.18,16.18,0,0,0-.95-2.77,24.71,24.71,0,0,1-1.24-3.12,10.2,10.2,0,0,1-.76-1.93,10.61,10.61,0,0,0-.69-1.82,8.82,8.82,0,0,1-.56-2.59,4.12,4.12,0,0,0-.05-.7,4.07,4.07,0,0,1,.2-3c.12.34.23.62.33.9a1.19,1.19,0,0,1,.08.41,13.79,13.79,0,0,0,.7,3.41,25.09,25.09,0,0,0,1.3,3.38,18.24,18.24,0,0,0,1,2.33,8.35,8.35,0,0,1,.29,1.07c.45,1.32,1,2.63,1.38,4,.36,1.11.66,2.24,1,3.36.11.4.18.82.29,1.22a14.92,14.92,0,0,1,.61,4.14c0,1.18.36,2.32.25,3.5a2.25,2.25,0,0,1-.16,1.09.53.53,0,0,0-.08.27,27.48,27.48,0,0,1-.31,3.62,5.88,5.88,0,0,1-.24,1.37,13.71,13.71,0,0,1-1.29,3.38c-.05.08-.13.17-.13.25,0,.82-.57,1.35-.88,2a.94.94,0,0,1-.33.44c-.62.32-.75.91-.91,1.55a5.83,5.83,0,0,0-1.7,1.56,3.46,3.46,0,0,1-1.76,1.36c-.41.26-.35.77-.89,1-.31,0-.31,0-.6-.22.6-.53,1-1.27,1.88-1.55a1.72,1.72,0,0,0-1.24,0,3.38,3.38,0,0,1-.68.17,8.49,8.49,0,0,1-.86,0c-.77-.4-.65-1.35-1.37-1.7-.57.43-1.14.83-1.67,1.27s-.71.76-1.28.78a.33.33,0,0,0-.13.07c-.36.28-.62.67-1.15.76a5.26,5.26,0,0,0-1.2.51l-.87-.22-.38.45a1.85,1.85,0,0,0-1.37,0l-.33-.23-.25-.14-.46.32c-.48,0-.81-.43-1.29-.41a3.48,3.48,0,0,1-1.22-.27,6.8,6.8,0,0,1-2.2-1.18,15.52,15.52,0,0,0-2.61-1.61,7.47,7.47,0,0,1-2-1.31,3.7,3.7,0,0,0-.73-.65,2.52,2.52,0,0,1-1.11-1.24,3.25,3.25,0,0,0-.75-1,6.62,6.62,0,0,1-1.26-1.84c-.44-.82-.95-1.62-1.31-2.47s-.94-1.62-1.27-2.49c-.17-.47-.66-.67-.86-1.15a1.7,1.7,0,0,0,.06-1.57,3.09,3.09,0,0,1-.37-1.48.7.7,0,0,0-.07-.41,19.84,19.84,0,0,1-.9-2.8,11.92,11.92,0,0,1-.74-4.39c0-.75,0-1.5,0-2.25a6.12,6.12,0,0,1,.21-1.8,5.67,5.67,0,0,0,.11-1.47,7.43,7.43,0,0,0,.75-2.23c-.1-.26-.2-.4-.46-.42a4.05,4.05,0,0,0-.84,1.57c-.44,1.42-1,2.8-1.33,4.26,0,.09-.09.18-.09.27a34.9,34.9,0,0,0-.3,5.87c.08.7.42,1.35.28,1.93.4.75.76,1.36,1,2a3.91,3.91,0,0,0,1.63,1.87,3.32,3.32,0,0,1,.63.57l-.29.37-.95-.26a3.09,3.09,0,0,1-.31-.25c-.24-.22-.46-.48-.72-.68a6.11,6.11,0,0,1-2.22-3.76,1.43,1.43,0,0,0-.09-.27,6.92,6.92,0,0,1-.43-3c0-.24,0-.47,0-.71a6.71,6.71,0,0,1,.15-2.09c.23-.66,0-1.41.34-2.06a15.72,15.72,0,0,1,.67-2.85,5.81,5.81,0,0,1,.72-1.8,11.38,11.38,0,0,1,1.36-2.58,3.49,3.49,0,0,0,.48-1.15,10.35,10.35,0,0,0,.76-3.11,2,2,0,0,1,.06-.42,12,12,0,0,1,2.51-5.23c.48-1,1.46-1.57,2-2.54a15.58,15.58,0,0,1,2.39-1.88,4.25,4.25,0,0,0,1.15-.78,1.71,1.71,0,0,1,.59-.36c1.49-.53,2.87-1.3,4.34-1.86a5.27,5.27,0,0,0,1.62-.89,7.43,7.43,0,0,0,.94,0,6.81,6.81,0,0,0,.89-.22c.61.25.69.92,1.1,1.25a.53.53,0,0,0,.48-.36l-.19-.72a.29.29,0,0,1,.38-.15.74.74,0,0,1,.4.55c.05.31-.06.65.16,1,.45.27,1,0,1.49.21a9.14,9.14,0,0,0,1.46.45,3,3,0,0,1,1.57.86c.84.88,1.72,1.73,2.58,2.59a5,5,0,0,1,.78,1,14.37,14.37,0,0,0,1,1.35,4.92,4.92,0,0,1,.37.59,16.72,16.72,0,0,1,1.62,4.16,1.31,1.31,0,0,0,.1.4,15.06,15.06,0,0,1,.92,3.07,2.7,2.7,0,0,1,.09,1,15.83,15.83,0,0,0,.33,2.92,10.47,10.47,0,0,0,.56,2c.35,1.16.63,2.33.88,3.52.2,1,.37,1.92.66,2.85s.61,1.86.92,2.78a1.32,1.32,0,0,1,0,.28Zm-22.28,9.62,0,0,.08.4a12.41,12.41,0,0,1,2.3,1.79l1,.17a4.77,4.77,0,0,0,2,1.27,5,5,0,0,0,3-.47c.58.08.83-.56,1.38-.62s.89-.68,1.49-.69a5.2,5.2,0,0,1,1.69-1,11.63,11.63,0,0,0,1.7-1.12,1.21,1.21,0,0,1,.79.69c-.18.29-.23.69-.61.87l-.59-.17a7.59,7.59,0,0,1-2,1.27,2.23,2.23,0,0,1-.85.95,1.77,1.77,0,0,0-.63.07,5.83,5.83,0,0,0-1.07.64c-.36.28-.88,0-1.18.35s-.75.31-1.14.44a4,4,0,0,1-1.37.21,1,1,0,0,1-.42,0c-.68-.4-1.57-.33-2.17-.92a9.77,9.77,0,0,1-3-1.75,20.81,20.81,0,0,1-1.58-1.38c-.39-.41-.76-.83-1.13-1.25a2.27,2.27,0,0,1-1.54-.38,1.12,1.12,0,0,0-.79-.19,2.46,2.46,0,0,0-.36.14,1.62,1.62,0,0,0-.09.3c0,.14,0,.28,0,.42l.56.81.56.86v.94a3.93,3.93,0,0,0,.64,2.11c.17.28.32.57.48.86a4.47,4.47,0,0,0,2.27,2.18,6.06,6.06,0,0,1,1.05.62c.5.16.73-.28,1.08-.14.31.32.31.32.29.66-.27.23-.67,0-.92.27-.21.44.05.69.39.93l.81.08.81.72.35-.12,1.12,1a9,9,0,0,0,2.78.31,6.27,6.27,0,0,0,3.55-1.06,5.09,5.09,0,0,1,1.57-.74,8.33,8.33,0,0,1,1.78-1.46c.12-.06.2-.2.31-.28,1.1-.86,1.25-2.26,1.92-3.35,0-1.09,1.09-1.6,1.27-2.57,0,0,.07-.07.11-.1.26,0,.43-.38.76-.25l.16.22c-.32.1-.55.28-.51.66.16.16.3.15.49-.07v-.61l.42-.05a4.08,4.08,0,0,0,.28-.49,1.29,1.29,0,0,0,.12-.54,8.89,8.89,0,0,1,.44-2.45,18.18,18.18,0,0,0,.42-3.28,7.63,7.63,0,0,1,.22-2.65.75.75,0,0,0,0-.42,10,10,0,0,1-.21-2.79,3.25,3.25,0,0,0,0-.7c-.29-1-.39-2.1-.62-3.15-.31-1.4-.72-2.79-1.08-4.18a4.67,4.67,0,0,1-1-1.38,24.63,24.63,0,0,0-1.54-3.29c-.16-.33-.26-.72-.64-.9a9.5,9.5,0,0,0-1.49-2c-1.07-1.86-2.16-3.71-3.23-5.57a8.39,8.39,0,0,1-.42-1.08l-.92-1.1c-.46,0-.86-.32-1.32-.51s-1-.45-1.55-.63a5.59,5.59,0,0,1-2.07-.3c-1.26,0-2.52,0-3.77,0a3.76,3.76,0,0,0-.36.5,12.87,12.87,0,0,0-1.17,3.41.39.39,0,0,1-.49.38l-.07-1.31c-.17-.27-.3-.46-.58-.45a19.7,19.7,0,0,0-2.63,1.76c-.38.61-.7,1.07-1,1.56a2.58,2.58,0,0,1-.51.66,10.42,10.42,0,0,0-2.78,3.61,4.67,4.67,0,0,0-.73,2.41,1.44,1.44,0,0,0-1,1.13,2.34,2.34,0,0,1,.16,1.23,1.5,1.5,0,0,0,.14.81,1,1,0,0,0,.31.22l.55-1c.24-.07.42-.1.58,0l.09.11c.19.84-.43,1.38-.76,2a4.69,4.69,0,0,0,.3,1.63c.29.18.6.24.64.58-.26.19-.66.08-.9.51a7,7,0,0,1-.44,2.08,5.66,5.66,0,0,0-.15,2.64c.17.93.12,1.87.25,2.78a4,4,0,0,0,1.36,3c.47.35.78.91,1.27,1.18.26-.12.39-.28.4-.47a1.61,1.61,0,0,0-.07-.69,4.77,4.77,0,0,0-.37-.59.52.52,0,0,1,.13-.67c.14,0,.33,0,.51,0s.37,0,.52,0a4.11,4.11,0,0,1,1.29,1.34c.31.64,1.07.75,1.42,1.32.05.08.12.15.17.23a6.18,6.18,0,0,0,2.56,2.28C324.58,145.13,324.71,145.44,325.07,145.55Zm16.46-28.31a15,15,0,0,0-1.52-3.85,5,5,0,0,0-1.14-1.58,2.08,2.08,0,0,1-.66-.89,3.06,3.06,0,0,0-1.33-1.58c-.56-.36-1-.89-1.54-1.25a3.47,3.47,0,0,1-1.67-.83l-.45.16-1-.43a2,2,0,0,1-1.84-.08c-.76.43-1.53.17-2.35.3-.41.23-.91.49-1.38.79a2.88,2.88,0,0,0-.51.48c-.2.2-.57,0-.73.31l.07.26c.21.14.45.07.68.1s.53.09.79.14l.45-.31a5.63,5.63,0,0,0,2.44.19l1.19.53h1c.54.2,1,.47,1.47.62a13.93,13.93,0,0,1,2.91,1.64c.63.38,1.11,1,1.72,1.41A8,8,0,0,1,339.7,115a8.32,8.32,0,0,1,.6.94c.28.42.57.85.86,1.26A.25.25,0,0,0,341.53,117.24Zm-21.11-7.73c-.12.16-.21.44-.39.53-.6.29-.79,1-1.45,1.24a18.4,18.4,0,0,0-1.86,2.07c-.66,1-1.14,2.14-1.7,3.21a1.41,1.41,0,0,0,0,1.22.5.5,0,0,0,.42-.49c0-.54.77-.6.65-1.18,0-.06.08-.16.14-.23a23.12,23.12,0,0,1,1.85-1.71,13.57,13.57,0,0,0,2.18-1.9l.56-.14.6-.92c.45-.18,1-.24,1.28-.55s.8-.46,1.13-.82l.18-.59c.31-.47.82-.7,1-1.18,0-.28.09-.57-.13-.8a.65.65,0,0,0-.77.12c-.51.43-1.2.48-1.75.82-.18.12-.45.08-.68.13a.79.79,0,0,0-.23.14l-.18.55ZM344.14,150a14.81,14.81,0,0,1-1.69,2.57,4.28,4.28,0,0,0-1,3.11c0,.07.09.14.17.25h.92c.3-.09.3-.5.64-.51s.5-.22.72-.39a6.38,6.38,0,0,1,.67-.41,19.14,19.14,0,0,0,1.72-2.76,3.67,3.67,0,0,0,.42-2.18,5.58,5.58,0,0,0-1-1.57c-.43-.11-.65.12-.87.45l-.1,1Zm-27.83-7.55a.47.47,0,0,0-.19.66c.39.89.79,1.78,1.17,2.67a8.88,8.88,0,0,0,.36.9c.52.93,1.07,1.84,1.62,2.76.06.1.2.15.31.23a.87.87,0,0,0,.07-.7,16.77,16.77,0,0,1-.56-3,5.73,5.73,0,0,0-.3-1.35,2.08,2.08,0,0,0-1.1-1.36A15.07,15.07,0,0,1,316.31,142.45Zm22.42-27-.78-.27s-.07,0-.1,0a3.48,3.48,0,0,0,1.21,2.38,4.34,4.34,0,0,1,.81,1.12,8.72,8.72,0,0,0,.84,1.27c.07.1.24.13.38-.11a11.54,11.54,0,0,0-.47-1.21C340,117.61,339.36,116.54,338.73,115.47Zm-25.4,13.82.33,1.41c.14-1.19.61-2.08.3-3.1C313.42,128.07,313.58,128.77,313.33,129.29Zm6.09,13.15c.43,1,.51,1.08,1.11.91A1.21,1.21,0,0,0,319.42,142.44Zm9.3-36.41c.48.4.48.4,1-.09a.47.47,0,0,0-.49-.4C329,105.56,328.89,105.75,328.72,106Z" transform="translate(-277.5 -39.8)"/><path class="cls-1" d="M330.81,71.62c-1,.25-.41,1.18-1,1.58a11.67,11.67,0,0,0-2.52-.18,10.06,10.06,0,0,1-1.83-1c.07-.09.11-.19.18-.23.58-.33,1.19-.07,1.65-.16.44.16.6.53.94.52.36-.25.12-.65.31-.94l.5.1c.43-.15.57-.45.47-1a5.64,5.64,0,0,0-1.21-1.23,2.48,2.48,0,0,0-1.07.48l-.42.73-.85.41a2.81,2.81,0,0,1-1.67-1.2l.5-1.11a6.25,6.25,0,0,0-.11-.91c-.16-.58-.45-1.13-.65-1.69a7.51,7.51,0,0,0-.61-1.7A4.84,4.84,0,0,1,323,63c-.23-.86-.21-1.75-.47-2.61a3.82,3.82,0,0,1,0-1.21,7.79,7.79,0,0,0-1.4-2.3c-.59-.73-1.21-1.42-1.85-2.1A6.94,6.94,0,0,1,318,53.07a29.86,29.86,0,0,0-1.81-2.49c-.15-.24-.34-.44-.48-.69-.49-.85-.94-1.72-1.45-2.55a4.21,4.21,0,0,0-1.05-1.3c-.65-.48-1.16-1.09-1.82-1.69a10.31,10.31,0,0,0-2.21-.37,3,3,0,0,0-.75-.73.54.54,0,0,1,.12-.61c.39,0,.68.24,1,.4s.85,0,1.23.2a1.36,1.36,0,0,0,1.12.1l.4-.72-.74-2a1.73,1.73,0,0,1,.47,0,1.47,1.47,0,0,1,.81.74,2.68,2.68,0,0,1-.21,1.78A5.53,5.53,0,0,0,315,45.67a13.19,13.19,0,0,0,2,3.68,6.62,6.62,0,0,1,.71,1.21c.44.9,1.31,1.46,1.77,2.34a7.47,7.47,0,0,0,1.21,1.54,13.83,13.83,0,0,1,.94,1.31c.23,0,.31-.08.32-.22a2.2,2.2,0,0,0-.18-1.23,4.67,4.67,0,0,1-.68-1.82c0-.16-.19-.32-.27-.48a4.44,4.44,0,0,1-.48-1,3.29,3.29,0,0,0-.62-1.24c-.4-.47-.51-1.1-1-1.53s-.79-.8-1.18-1.19a.42.42,0,0,1,.62-.14,2.87,2.87,0,0,1,.53.45,16.84,16.84,0,0,1,2.86,3.76,5.85,5.85,0,0,1,.34.91c.18.53.37,1.06.6,1.72l.06,1a7.1,7.1,0,0,1,.6,1.86,4.1,4.1,0,0,0,1.38,2.22c.35.36.73.7,1.07,1.08a10.84,10.84,0,0,1,1.5,2c.15.27.33.57.71.61a1.42,1.42,0,0,0-.09-1.07,31.22,31.22,0,0,1-1.16-4.57c.34-.29.6-.14.93.19A18.19,18.19,0,0,1,327.9,59a.81.81,0,0,0,.07.41,13.82,13.82,0,0,1,.7,2.69,7.19,7.19,0,0,0,.49,1.44,4.39,4.39,0,0,1,.43,1.18,6.09,6.09,0,0,0,.69,1.52c.68,1.22,1.39,2.43,2.09,3.63a4.31,4.31,0,0,0,.49,2.18c.31.68.43,1.43.76,2.1a20.08,20.08,0,0,0,1.94,3.25c.15.21.41.17.62.24a5.64,5.64,0,0,1,2.61,2.06,8.61,8.61,0,0,0,1,1.19,5.6,5.6,0,0,1,.59.77c.75,1.13,1.52,2.24,2.17,3.43a3.3,3.3,0,0,0,.38.59,19.28,19.28,0,0,1,1.85,2.79c.14.25.33.46.47.7a5.9,5.9,0,0,1,1,2,1.18,1.18,0,0,0,.19.37,21.15,21.15,0,0,1,1.8,3.63,5.37,5.37,0,0,1,.57,1.57c0,.13.11.25.18.37a4.66,4.66,0,0,1,.67,2.31,5.32,5.32,0,0,1,1.07,2.77,24.21,24.21,0,0,1,.31,5,3.74,3.74,0,0,0,.2,1.65,2.88,2.88,0,0,1,0,1,3.28,3.28,0,0,0,.23,1.51c.26.47-.1.89-.23,1.36l.46,1.27a5.56,5.56,0,0,0,.1-1.88c0-.57.44-1,.3-1.6.53-.11.5.39.84.46l0,1.88c.49.59-.06,1.25.15,1.89a7.58,7.58,0,0,1,.14,1.9,6.33,6.33,0,0,1,1.16,1.7.59.59,0,0,0,.68,0c.16-.68-.07-1.45.13-2.24a1.79,1.79,0,0,1,.65-.67,1.16,1.16,0,0,1,.31.22,6.6,6.6,0,0,0,.85,1.47l-.15.64a18.78,18.78,0,0,0,2.53,4.79,7,7,0,0,1,1,2.14,1.9,1.9,0,0,1,0,1.37,1.73,1.73,0,0,0,0,1.49c.07.17.08.37.16.53a8.63,8.63,0,0,1,.84,2.94,1.86,1.86,0,0,0,.23.66,13.8,13.8,0,0,1,1.16,4c.16.82.36,1.63.55,2.45.08.3.25.59,0,.92a.53.53,0,0,0,0,.41,3.15,3.15,0,0,1,0,2.32,3,3,0,0,0-.06,1.11,13.47,13.47,0,0,1-.36,3.47,4.85,4.85,0,0,1-.45,1.09,11.68,11.68,0,0,1-1.3,4.47,14,14,0,0,0-1.12,3.38,1.12,1.12,0,0,1-.6.46c-.5.62-.49,1.48-1,2.12s-.44,1.42-1.05,2c-.16,0-.3,0-.33-.26a2.32,2.32,0,0,1,.51-2c.37-.4.3-1,.7-1.36A2.08,2.08,0,0,0,359,155a.35.35,0,0,1,0-.13,5.06,5.06,0,0,0,.78-2.08c.71-1,.61-2.25,1.3-3.22.17-1,.59-1.94.67-3a10.5,10.5,0,0,1,.3-1.92,6.53,6.53,0,0,0,.19-1.8c0-1.12.06-2.25,0-3.37-.37,0-.45.19-.49.4a5.39,5.39,0,0,0,0,.7,5.85,5.85,0,0,1-.26,2.49.84.84,0,0,0,0,.28,6.47,6.47,0,0,1-.08,1.4c-.25,1-.59,1.94-.9,2.94-.5-1.43-.5-1.43.11-2.73,0-.52,0-1.13,0-1.74a4.68,4.68,0,0,1,0-.84,7.33,7.33,0,0,0,0-3.58c.11-1-.36-1.92-.32-2.91a7.14,7.14,0,0,0-.62-2.12,1.87,1.87,0,0,1-.23-.65c-.15-.87-.47-1.7-.64-2.57a12,12,0,0,0-.73-1.81,2.78,2.78,0,0,1-.38-1.19,14.76,14.76,0,0,1-1.13-3.42c-.31-1.17-.74-2.31-1.13-3.45a2.23,2.23,0,0,0-.32-.48l-.35.26a3.33,3.33,0,0,1,.11,1.73.93.93,0,0,1-.86.18,1.69,1.69,0,0,1-.77-.79,10.61,10.61,0,0,1-1.15-3.43,2.9,2.9,0,0,0-.25-.79c-.17-.38-.37-.75-.58-1.17a20.69,20.69,0,0,0-.36-3.28c-.26-.36.3-.83-.16-1.16a3.68,3.68,0,0,0-.25-1.09,2.8,2.8,0,0,1-.07-.83,4.13,4.13,0,0,0-.19-1.39,3.65,3.65,0,0,1-.1-1.11A4.06,4.06,0,0,0,350,106a1.8,1.8,0,0,1,.05-1.23c-.49-1.07-.41-2.3-.94-3.36a9.19,9.19,0,0,0-.86-2.49,7.07,7.07,0,0,0-.9-1.88,1.57,1.57,0,0,1-.29-1.22,5.15,5.15,0,0,1-1.48-2.35,8.09,8.09,0,0,0-1.21-2c-.86-1.22-1.77-2.4-2.66-3.59a4.89,4.89,0,0,0-.39-.58c-1.06-1.06-1.93-2.28-2.9-3.42-.49-.16-.34-.74-.66-1A7.48,7.48,0,0,1,337,82a13.8,13.8,0,0,1-1.51-1.81c-.42-.67-1-1.26-1.42-1.9a4.67,4.67,0,0,1-.42-.72,19.26,19.26,0,0,1-1.39-3.07,4.78,4.78,0,0,0-.39-.74,4.06,4.06,0,0,1-.71-1.65C331.15,71.92,330.94,71.78,330.81,71.62Zm-1.56-3.8c0-.23,0-.34,0-.42-.59-1.1-1.37-2.08-2-3.14-.85-1.38-1.93-2.63-2.91-3.93a4.88,4.88,0,0,0-.56-.52l-.29.65c.24.89.54,1.73.7,2.59.11.61.53,1.1.58,1.72a5.13,5.13,0,0,0,.51,1.58,3.81,3.81,0,0,1,.38,1.48.75.75,0,0,0,.49.69,3.28,3.28,0,0,1,2.26-.27Zm29.92,58.49a15.89,15.89,0,0,1-1.24-3s-.08,0-.12,0a1,1,0,0,0-.26,0c.31.45.14,1,.44,1.43a2.35,2.35,0,0,1,.38,1.33,1.71,1.71,0,0,0,.13.53c.2.52.45,1,.6,1.56a16.55,16.55,0,0,0,1.16,2.49,6.53,6.53,0,0,0-1.09-3.24Zm-21-45.77c-.29-.47-.47-.78-.67-1.08s-.27-.17-.52,0C337.4,80.53,337.4,80.53,338.14,80.54Zm.53,1.34c.11.23.19.37.39.33C339.15,81.93,339.06,81.81,338.67,81.88Zm17.85,37c-.09.12-.21.27,0,.31C356.62,119.15,356.62,118.94,356.52,118.83Zm-2.28,2.33a.19.19,0,0,0,.06-.3s-.07,0-.09,0S354.14,121.07,354.24,121.16Zm3.08.8a1.31,1.31,0,0,0-.06.23s0,.06.07.1.1-.11.1-.17S357.37,122,357.32,122ZM336.19,78.32l.05-.08h-.08Z" transform="translate(-277.5 -39.8)"/><path class="cls-1" d="M308.4,307.73a1,1,0,0,0-.23-.65,9.7,9.7,0,0,1-2.07-3.92,5.4,5.4,0,0,1-.24-1.36c0-.66,0-1.32,0-2a10,10,0,0,0-3.34-3.88c-.54-.44-1.16-.78-1.73-1.19-.41-.3-.8-.64-1.22-1-.92-.38-2-.33-2.95-.63a1,1,0,0,0-.56,0,4.54,4.54,0,0,0-2.54,1.32s-.09,0-.14,0c-.51-.13-.52-.13-.45-.92a2,2,0,0,1,1.44-1,2.56,2.56,0,0,0,.91-.52,12,12,0,0,1,4.24.32,19.48,19.48,0,0,1,3.47,2.3,27.69,27.69,0,0,1,3.13,2.8,6.49,6.49,0,0,1,.46.7l.63.93a3,3,0,0,1,.34.45c.45,1,.9,1.94,1.34,2.91a5,5,0,0,0,.51,1.14,3.38,3.38,0,0,1,.45,1.16c.33,1.12.61,2.24.9,3.37a3.41,3.41,0,0,0,1.63,2.2c.58.31,1,.91,1.63,1.09l.95,0a3.75,3.75,0,0,1,1.31,1.49c.56.34,1.13.66,1.68,1a3.77,3.77,0,0,1,.67.5q1.5,1.49,3,3a4.5,4.5,0,0,1,.93,1.72,1.79,1.79,0,0,0,.32.61,10.84,10.84,0,0,1,1.78,3.46,10.34,10.34,0,0,1,.48,2.88,32.22,32.22,0,0,1-.34,4.05,2,2,0,0,1-.17.53c-.38.85-.75,1.7-1.14,2.55a1.92,1.92,0,0,0-.13,2,4.45,4.45,0,0,1-1.92,1.59c-.55.25-1.09.54-1.71.85h-2l-.41.51A3.15,3.15,0,0,0,315.9,337c-.43-.18-.64-.66-.92-1a.89.89,0,0,0-.77.17,9.55,9.55,0,0,1-1.52-.82c-.45-.31-1-.4-1.41-.86a.57.57,0,0,0-.37-.18c-.54,0-.78-.48-1.13-.76a22,22,0,0,0-4.33-1.17l-.34.15a.61.61,0,0,1-.28-.05,2,2,0,0,0-1.09-.19,4.79,4.79,0,0,1-1.8-.21,2.29,2.29,0,0,0-1-.05,6.3,6.3,0,0,1-3.57-.87h-2a1.59,1.59,0,0,1-.19-.41c0-.26.12-.44.41-.64a2.38,2.38,0,0,1,1.42,0,3.33,3.33,0,0,0,1.24.18,3,3,0,0,1,1.24.18,2,2,0,0,0,.82.09l1.84,0a2.41,2.41,0,0,1,1.37.21c.8,0,1.55.32,2.33.33a16.37,16.37,0,0,1,3.79.91c.58.54,1.45.6,2,1.28a4.13,4.13,0,0,0,1.12.83,11.62,11.62,0,0,1,2,1.45l.59-.44a4.93,4.93,0,0,0,2.9,1.57s.1,0,.14,0c.51-.34,1.1-.15,1.61-.24a5.3,5.3,0,0,0,2.13-1.73c.28-.95.33-1.88.66-2.76.07-.17.06-.39.17-.52a4.37,4.37,0,0,0,.69-2.24,6.74,6.74,0,0,0,.14-1c0-.47.21-.89.17-1.36a4.92,4.92,0,0,0-.23-1.37,2.9,2.9,0,0,1-.07-1,2,2,0,0,0-.41-1.21l-.68-.26a4.75,4.75,0,0,0-.57-2.24c-1.84-1.66-3.64-3.78-5.83-5.62a4.44,4.44,0,0,0-2.7-2.45l-.37.49-.57-.38c0,.09-.1.19-.07.26.25.7.51,1.4.78,2.09a3.36,3.36,0,0,0,1.12,1.71c.49.36.6,1,.88,1.63a1.59,1.59,0,0,1-1.14-.54c-.32-.26-.68-.49-1.06-.77-.56-1.33-1.4-2.58-1.87-4a5.1,5.1,0,0,0-1.39-1.89,12.7,12.7,0,0,0-2.71-1.92,2.13,2.13,0,0,1-.56-.41c-.42-.53-1.08-.73-1.57-1.16-.07-.06-.26,0-.4,0a7.67,7.67,0,0,0-1.1-.85,6.08,6.08,0,0,1-1.65-1.3,7.8,7.8,0,0,0-1.9-1.42,1.74,1.74,0,0,1-.69-.68.51.51,0,0,1,.06-.63c.4-.16.67.44,1.16.05a6.86,6.86,0,0,0,1.33-2c1,.07,1.07.11,1.84,1,0,.23-.1.36-.33.32s-.43-.14-.65-.2a.34.34,0,0,0-.14,0c-.39.15-.52.51-.67.85a.8.8,0,0,0,0,.27,3.17,3.17,0,0,0,1.63,1.67c.68.34,1.17.92,1.85,1.25a11.11,11.11,0,0,1,2,1.06,5.61,5.61,0,0,0,1.15.49.69.69,0,0,0,.05.13s.06,0,.09,0Zm-.56-3.66c0-.22,0-.49-.28-.58,0-.23.1-.52-.18-.7-.13.3-.15.55.2.69,0,.24,0,.48.28.56,0,.15-.05.35.16.44C308.14,304.26,308,304.14,307.84,304.07Zm.44.9-.06.09h.09Z" transform="translate(-277.5 -39.8)"/><path class="cls-1" d="M408.3,282.71c.1-.4.39-.39.54-.52a.73.73,0,0,1,.66.21,8.37,8.37,0,0,1,1.32,1.41c.77,1.17,1.59,2.31,2.43,3.43.55.75,1.05,1.53,1.6,2.29a3.93,3.93,0,0,0,.74.83,6.15,6.15,0,0,1,1.37,1.77c.55.87,1,1.79,1.51,2.69a5.36,5.36,0,0,0,.58.95,7.13,7.13,0,0,1,.84,1.29,17,17,0,0,1,1.37,2.73.5.5,0,0,0,.13.25c.66.5.7,1.42,1.3,2a1,1,0,0,1,.24.5c.35,1.35,1.19,2.53,1.48,3.91a23.65,23.65,0,0,1,1.48,4.64,3.27,3.27,0,0,1,.15,1v2.82a7.88,7.88,0,0,1-.18,1.52,5.87,5.87,0,0,0,0,2.09c.16.92.35,1.83.53,2.74a6.67,6.67,0,0,0,.5,1.2l.06.95a12.8,12.8,0,0,1,1.39,3.93,7.2,7.2,0,0,0,.36,1.2c.33.82.69,1.63,1.05,2.44a2.3,2.3,0,0,1,.26.79,11.59,11.59,0,0,0,.56,2.39,3.74,3.74,0,0,0-.26,1.7,4.42,4.42,0,0,1-.45,2.3c-.24-.33-.13-.67-.14-1a2.48,2.48,0,0,0-.24-1.36.75.75,0,0,1,.14-.77,6.41,6.41,0,0,0-.71-2.07l-.07-1.53c-1.07-1.45-1.39-3.28-2.23-5.09,0,0,0-.28,0-.51s0-.38,0-.62c-.6-.86-.52-2-1.21-2.92-.28.11-.22.6-.63.59-.11-.35-.22-.7-.35-1.09l.41-.54a5.42,5.42,0,0,1-.19-1.92,8.44,8.44,0,0,0-.22-1.8,5.68,5.68,0,0,1-.35-2.2.84.84,0,0,0-.08-.41c-.37-.67,0-1.27.2-1.88.05-.15.27-.25.39-.36a.66.66,0,0,0,.06-.29,38,38,0,0,0-.89-4.37,6.18,6.18,0,0,0-.67-1.52,22.18,22.18,0,0,1-1.23-2.66,7.2,7.2,0,0,0-1.16-2.19,4.18,4.18,0,0,1-.49-.85,38.74,38.74,0,0,0-2-3.69,2.4,2.4,0,0,1-.31-.78,1.26,1.26,0,0,0-.35-.6,11.6,11.6,0,0,1-1.31-2.13,2.68,2.68,0,0,0-.32-.6,39.4,39.4,0,0,1-2.66-3.26,5.32,5.32,0,0,1-1-1.66,1.13,1.13,0,0,0-.21-.35,25.38,25.38,0,0,1-2.66-3.77A8.49,8.49,0,0,0,408.3,282.71Z" transform="translate(-277.5 -39.8)"/><path class="cls-1" d="M365.31,169.68a1.64,1.64,0,0,1-.94.56.54.54,0,0,1-.34-.43c0-.31.33-.43.46-.7a7.74,7.74,0,0,1,.07-.83,6.81,6.81,0,0,1,.23-.88c-.44-1.16-.13-2.45-.35-3.91l-.71-1.55c.11-1.18-.45-2.38-.37-3.66-.31-.55-.18-1.2-.38-1.77a1.66,1.66,0,0,1,0-1.1c.2-.61.3-1.26.54-1.86a4.28,4.28,0,0,0,.16-1.54c-.32-.38-.74-.14-1-.4a1,1,0,0,1-.12-.77.64.64,0,0,1,1.07-.27c0-1.41.06-2.67,0-3.93s.3-2.31.33-3.48c0-.5.37-1,0-1.48.36-.83.05-1.9.89-2.55a.65.65,0,0,1,.42.37c.08.34-.22.48-.36.68a1.33,1.33,0,0,0,0,.29,4.11,4.11,0,0,1,.14.68c0,1.27,0,2.53,0,3.8,0,.6-.25,1.18-.24,1.8,0,1.78,0,3.56,0,5.35a3.17,3.17,0,0,0,.08.69,6.32,6.32,0,0,0,.27,1.08c.33.82.06,1.69.29,2.5a6.42,6.42,0,0,1,.48,2.32,3,3,0,0,0,.29,1.22,9.47,9.47,0,0,1,.57,3.15.88.88,0,0,0,0,.28c.15.58.35,1.16.48,1.75s-.09,1.14.34,1.61a2.54,2.54,0,0,0-.06,2.2,9.06,9.06,0,0,1-.1,2.8,4.16,4.16,0,0,0-.13,1.11c0,1,0,2-.06,2.89-.1.21-.23.23-.43.22-.35-.91.24-2-.37-2.78a7.51,7.51,0,0,0,.06-3.82,1.46,1.46,0,0,1-.06-.55,14.89,14.89,0,0,0-.38-3.05c0-.11-.16-.21-.23-.3l-.14,0a7.89,7.89,0,0,0,0,.84c0,.22.14.48.08.67-.2.58,0,1.21-.3,1.79A3.66,3.66,0,0,0,365.31,169.68Zm.5-6c-.15.12-.11.24,0,.36A.22.22,0,0,0,365.81,163.69Z" transform="translate(-277.5 -39.8)"/><path class="cls-1" d="M337.19,89.38c.22-.1.26-.25.2-.37a2,2,0,0,0-1.19-.92c-.47.27-.62-.3-1-.36-.59-.1-1.22.15-1.77-.18-1,.43-1.94.88-2.91,1.28-.43.18-.68.58-1.16.7s-.59.57-.81.93a1.16,1.16,0,0,1-.49.49,2.81,2.81,0,0,0-1.4,1.68c-.06.13-.13.25-.19.39a2.9,2.9,0,0,1-.66,2.2,2.58,2.58,0,0,1-.76-1.89,7.8,7.8,0,0,1,1.2-1.65,2.11,2.11,0,0,1,1.17-1.46,13.51,13.51,0,0,1,3.45-3,4.55,4.55,0,0,0,1.7-.38c.51-.17,1.07-.19,1.61-.4l.52.35c.25.1.52-.27.85-.16s.61.22.92.33.6.24.89.34l1,1a5.65,5.65,0,0,1,1.28,2.29c.05.13,0,.28.07.42.6,2.27.25,1.72,1.89,3.31a4.55,4.55,0,0,1,1.31,2.1,2.32,2.32,0,0,1,0,1.64,3.49,3.49,0,0,0-.16.83h-.43l-.14.81-1.2,1.75-.42,0-.39.57c-.83.51-1.72,1-2.61,1.44l-1.17-1.09c-.08-.27-.1-.46.06-.64s.51-.08.79-.17a1.4,1.4,0,0,0,.81-1.06.46.46,0,0,1,.42-.46l.24.61c.11,0,.22.11.29.09a4.86,4.86,0,0,0,2-1.44,8.82,8.82,0,0,0,.41-3.58c-.22-.59-.86-.81-.94-1.36-.31,0-.44,0-.45.28s0,.75-.07,1.12l-.49,1a4.44,4.44,0,0,1-.75,2.74,2.41,2.41,0,0,1-.11-1.17,4.85,4.85,0,0,0,.11-1.23,3.06,3.06,0,0,1,.12-1.22,6.32,6.32,0,0,0-.27-3,2.7,2.7,0,0,0-.71-1,6.45,6.45,0,0,1-1.2-1.54c-.21-.35-.54-.5-.8-.76-.08-.32-.2-.63.13-.9C336.51,88.62,336.68,89.2,337.19,89.38Z" transform="translate(-277.5 -39.8)"/><path class="cls-1" d="M423.78,337.32a.73.73,0,0,1-.73-.32,12.35,12.35,0,0,0-2-2.51c-.13-.12-.31-.29-.32-.44-.06-.75-.72-1.07-1.09-1.59a4.23,4.23,0,0,0-.59-1.42,7.87,7.87,0,0,1-1-2.27,4.3,4.3,0,0,0-.6-1.4,3.09,3.09,0,0,1-.24-1.17c-.47-.58-.73-1.46-1.73-1.71a5,5,0,0,1-1.75,1.64.61.61,0,0,0-.21.18,5.75,5.75,0,0,1-2,1.82,5.72,5.72,0,0,0-.73.66A7.51,7.51,0,0,1,408,330.5a4.82,4.82,0,0,0-1.36.68c-.48.37-1.12.48-1.55.94a.38.38,0,0,1-.25.11c-.66-.12-1.06.37-1.5.67a7,7,0,0,1-1.77.8,5.62,5.62,0,0,0-2,.9c-.27.23-.63.16-.94.24a10.09,10.09,0,0,1-4,.56H393.2a14.67,14.67,0,0,1-1.89-.82,12.25,12.25,0,0,1-1.73-1.41,8.07,8.07,0,0,1-.94-1.22,2.81,2.81,0,0,1-.3-.63c-.16-.47-.11-1-.39-1.38.31-.25.52-.24.74-.08.24.32.07.73.2,1.12.06.08.13.19.22.3a12.77,12.77,0,0,0,2.23,1.92,4.89,4.89,0,0,0,1.25.63,1.23,1.23,0,0,0,1.09,0c.26.07.3.52.65.4a1.89,1.89,0,0,1,1.08,0,2.36,2.36,0,0,0,1.11-.11,5.53,5.53,0,0,1,1.89-.47,1,1,0,0,0,.75-.34c.29-.48.89-.11,1.2-.52s.77-.25,1.12-.54a7.7,7.7,0,0,1,1.27-.54c.47-.26.94-.54,1.41-.79a10.18,10.18,0,0,0,1.32-.78c.47-.38,1.07-.59,1.38-1.07l1,.12a1.38,1.38,0,0,0,1.14-.44,3.55,3.55,0,0,1,1.48-1,.56.56,0,0,0,.29-.26,1.94,1.94,0,0,1,1.14-.78l.4.12c.31-.23.35-.63.61-1,.89-.41,1.31-1.39,2-2.2.28-.11.57-.42,1-.29a6.22,6.22,0,0,0,.85.92,3.49,3.49,0,0,1,1.38,2.48,1,1,0,0,0,.24.64c.4.37.32,1,.64,1.37a3,3,0,0,1,.59,1.4,4.26,4.26,0,0,0,.61,1.25c.65,1.08,1.34,2.14,2,3.22a3.49,3.49,0,0,1,.25.95c.33.22.76.38.76.9s.5.55.55.94Z" transform="translate(-277.5 -39.8)"/><path class="cls-1" d="M312.25,323.4a.81.81,0,0,1-.78.08,14.05,14.05,0,0,1-3.29-1.52,16.33,16.33,0,0,0-2-1.06,9.28,9.28,0,0,1-2.64-1.48,8.09,8.09,0,0,1-2.71-2.18,26.8,26.8,0,0,1-2.28-2.48,29.42,29.42,0,0,0-2.31-2.42l-.78.16a.77.77,0,0,1-.57-.48c-.15-.44.34-.78.15-1.33-.9-.61-1.3-1.77-2.1-2.54-.08-.36-.19-.68.13-.93.06,0,.12,0,.15,0a5.27,5.27,0,0,1,1,.72c.5.55.9,1.19,1.38,1.76a7.73,7.73,0,0,0,1.49,1.48,10.62,10.62,0,0,1,2.77,2.94,6.93,6.93,0,0,0,1.76,1.78,2.54,2.54,0,0,1,.34.23c.88.77,1.74,1.56,2.63,2.31a4.8,4.8,0,0,0,2,1.19,4.12,4.12,0,0,1,1.4.86,8.52,8.52,0,0,0,1.43.89c.87.45,1.71.94,2.56,1.43C312.23,322.92,312.41,323.1,312.25,323.4Z" transform="translate(-277.5 -39.8)"/><path class="cls-1" d="M329.58,292.5a.65.65,0,0,1,0-.14c0-.09,0-.22.05-.27.55-.53.66-1.34,1.22-1.87.81-.78,1.56-1.62,2.38-2.39.51-.48,1.15-.8,1.63-1.32a5.32,5.32,0,0,1,1.49-1.26,3.3,3.3,0,0,0,.52-.47,2.33,2.33,0,0,1,.81-.51,6.94,6.94,0,0,0,1.3-.79,7.13,7.13,0,0,1,3.4-1.13,5.13,5.13,0,0,1,2.73.41,1.94,1.94,0,0,0,.54.13,2.29,2.29,0,0,1,1.35.67,7.54,7.54,0,0,1,1.23,1.35,5.65,5.65,0,0,0,.81,1,3.43,3.43,0,0,1,.66.9,1.39,1.39,0,0,0,.62.72,1.53,1.53,0,0,1,.65,1.12c-.21.25-.4.2-.54.06-1-1-2-2-3-3a7.88,7.88,0,0,1-.64-.85L344,283.5a5.45,5.45,0,0,0-2.83.53c-.73.3-1.47.58-2.21.86-.29.11-.29.11-.73.7a8.12,8.12,0,0,0-2.47,1.69c-1,.45-1.54,1.48-2.46,2.05-.5.91-1.55,1.37-1.86,2.27-.59.58-1.31.54-1.86.88Z" transform="translate(-277.5 -39.8)"/><path class="cls-1" d="M321.63,188.58v1.64c-.35.08-.43-.18-.47-.37a6.17,6.17,0,0,1-.06-.92c-.59-.65-.83-1.6-1.54-2.25a12.39,12.39,0,0,0-2-2.82c-1-1.37-2.25-2.5-3.28-3.82a12.1,12.1,0,0,0-1.92-2.21,32,32,0,0,1-3.24-6.8c.46-.33.76.1,1.13.24a15.89,15.89,0,0,1,1.51,3.3,4.09,4.09,0,0,0,.47.84c.41.56.76,1.18,1.17,1.74s.95,1,1.37,1.59a14.44,14.44,0,0,0,2.3,2.64,8.61,8.61,0,0,1,1.47,1.87c.81,1.19,1.64,2.37,2.34,3.64A11.11,11.11,0,0,0,321.63,188.58Z" transform="translate(-277.5 -39.8)"/><path class="cls-1" d="M411.3,308.88l.52-.22c.25.45.09.91.1,1.37a6.6,6.6,0,0,0-1.05,1.49,2.18,2.18,0,0,1-.59.78A18.69,18.69,0,0,1,407.4,315c-.55.91-1.59,1.24-2.32,2a12.63,12.63,0,0,1-2.34,1.77A26,26,0,0,1,398.6,321a.56.56,0,0,1,0-.91,6.36,6.36,0,0,1,1.22-.93,16.43,16.43,0,0,0,2-1.31,2.1,2.1,0,0,0,.55-.43,3.6,3.6,0,0,1,1.93-1.07c.9-1,1.91-1.79,2.89-2.65a32.4,32.4,0,0,0,2.69-2.68A18.37,18.37,0,0,0,411.3,308.88Z" transform="translate(-277.5 -39.8)"/><path class="cls-1" d="M332.1,99.83c-1-.55-.94-1.51-1.4-2.19V95.53l.36-.4c.14,0,.25-.06.32,0a1.35,1.35,0,0,0,1.56-.07l1,.67a2.07,2.07,0,0,1,.39.77c0,.51-.33.64-.44.93a2.15,2.15,0,0,1,.14,1.36l-.72,1A3.17,3.17,0,0,1,332.1,99.83Z" transform="translate(-277.5 -39.8)"/><path class="cls-1" d="M323.44,69.7c.05,0,.11.07.12.11a1.23,1.23,0,0,1,0,.27,1.14,1.14,0,0,1-.63.51c-.08.29.24.36.31.61l-.29.65a3.38,3.38,0,0,1-2.09-.18l-1.47.49-.52-.19c-.42.06-.34.56-.67.69s-.5.24-.73.35H316a.47.47,0,0,1-.14-.66c.28-.29.76,0,1-.31a1.72,1.72,0,0,1,1-.48,6.61,6.61,0,0,0,1-.49l1.09-.53a6.14,6.14,0,0,0,1.82-.29A12.68,12.68,0,0,1,323.44,69.7Z" transform="translate(-277.5 -39.8)"/><path class="cls-1" d="M320,282.12a.58.58,0,0,1,.16-.58,4.12,4.12,0,0,1,1.18-.05,5.89,5.89,0,0,0,1.65-.21,4.89,4.89,0,0,1,1.57,0,5.06,5.06,0,0,0,1.21-.62,2.58,2.58,0,0,1,1-.5c.3-.06.57-.36.92-.16a7,7,0,0,1,.83-.49c.29-.13.62-.19.91-.33s.36-.29.56-.41a.55.55,0,0,1,.54,0,.49.49,0,0,1,.08.64,5.54,5.54,0,0,0-1.6,1.07c-.82.34-1.62.72-2.45,1l-.93.28a.91.91,0,0,1-.7-.15,5.94,5.94,0,0,1-2.68.48,6.71,6.71,0,0,0-1.61.21C320.46,282.3,320.46,282.3,320,282.12Z" transform="translate(-277.5 -39.8)"/><path class="cls-1" d="M314.33,101.24l.23.92a1.68,1.68,0,0,1-.87.52l-.75,0a2.45,2.45,0,0,1-.86-.73v-1c.16-.35.37-.57.75-.55s.69.67,1.23.57l0,0a.41.41,0,0,0,.31.3Z" transform="translate(-277.5 -39.8)"/><path class="cls-1" d="M407.57,301.27c-.23,0-.35.41-.67.49l-.8.2c-.28-.14-.39-.38-.34-.81a3,3,0,0,1,.94-1,1.87,1.87,0,0,1,1.19,0,1.68,1.68,0,0,1,.64,1.51C408.13,301.63,408,301.27,407.57,301.27Z" transform="translate(-277.5 -39.8)"/><path class="cls-1" d="M305.68,86.23c0-.2-.11-.37-.06-.46a7.36,7.36,0,0,0,.92-2.22.58.58,0,0,1,.71.46,1.16,1.16,0,0,1,0,.69A2.71,2.71,0,0,1,305.68,86.23Z" transform="translate(-277.5 -39.8)"/><path class="cls-1" d="M352.42,454.12l.06-.46,2.49-.39a.49.49,0,0,1,.19.67c-.21.25-.52.12-.77.2s-.43.17-.64.26c-.46-.07-.86-.4-1.35-.3Z" transform="translate(-277.5 -39.8)"/><path class="cls-1" d="M314.06,101v-.88a.52.52,0,0,1,.67-.21,6.64,6.64,0,0,1,.63.34l.29.58a.51.51,0,0,1-.37.38,7.46,7.46,0,0,1-.95,0l0,0a.38.38,0,0,0-.31-.3Z" transform="translate(-277.5 -39.8)"/><path class="cls-1" d="M334.94,91.65c-.09-.09-.25-.19-.26-.28,0-.78-.06-1.56,0-2.32.3-.14.42.06.44.2a3.73,3.73,0,0,1-.18,2.42Z" transform="translate(-277.5 -39.8)"/><path class="cls-1" d="M358,453.36l-.92.66-.94-.66.09-.32h1.63A.3.3,0,0,1,358,453.36Z" transform="translate(-277.5 -39.8)"/><path class="cls-1" d="M363.51,440.21c-.21-.21-.37-.33-.31-.55.06-.06.13-.18.19-.17.49.05.88-.29,1.34-.32.14,0,.14,0,.32.36C364.65,440,364,440,363.51,440.21Z" transform="translate(-277.5 -39.8)"/><path class="cls-1" d="M306.42,93.63a5,5,0,0,1,1.41-.8c.37.11.28.36.28.62l-1.1.44C306.82,94,306.65,93.9,306.42,93.63Z" transform="translate(-277.5 -39.8)"/><path class="cls-1" d="M338.66,160.34l0-.33c.56-.09,1.05-.53,1.7-.3.14.22-.07.34-.2.39a9.4,9.4,0,0,1-1.17.38C338.91,160.5,338.78,160.39,338.66,160.34Z" transform="translate(-277.5 -39.8)"/><path class="cls-1" d="M318.07,281.65a1,1,0,0,1,.92-.09c.2.17.52.28.3.65a1.07,1.07,0,0,1-.8.08C318.25,282.14,318,282,318.07,281.65Z" transform="translate(-277.5 -39.8)"/><path class="cls-1" d="M352.85,107.27a.6.6,0,0,1,.4.52,1.79,1.79,0,0,1-.44,1.53,1.44,1.44,0,0,1,.12-1.2C353.06,107.84,352.52,107.59,352.85,107.27Z" transform="translate(-277.5 -39.8)"/><path class="cls-1" d="M296.92,306.42l.05-.28c.51-.27.84.12,1.22.33,0,.34-.17.42-.43.39A1.63,1.63,0,0,1,296.92,306.42Z" transform="translate(-277.5 -39.8)"/><path class="cls-1" d="M426.79,413.26c.19,0,.38-.09.53.07.13.71.09.76-.57.94A.8.8,0,0,1,426.79,413.26Z" transform="translate(-277.5 -39.8)"/><path class="cls-1" d="M329.56,292.48l-.05.4c-.32.17-.58.47-1,.44a.62.62,0,0,1-.24-.1c.07-.35.35-.51.67-.72h.62Z" transform="translate(-277.5 -39.8)"/><path class="cls-1" d="M359.48,150.34a5,5,0,0,1,.1-1.64l.39.06a1.36,1.36,0,0,1-.52,1.56Z" transform="translate(-277.5 -39.8)"/><path class="cls-1" d="M293.44,269.44a.58.58,0,0,1-.88,0c-.16-.15-.16-.2,0-.59C292.89,269,293.33,269,293.44,269.44Z" transform="translate(-277.5 -39.8)"/><path class="cls-1" d="M347.33,136c.7.58.86.93.69,1.64a3.13,3.13,0,0,1-.67-1.66Z" transform="translate(-277.5 -39.8)"/><path class="cls-1" d="M297.51,302.76a1,1,0,0,1,.4.81c-.17.23-.38.22-.68.08A.62.62,0,0,1,297.51,302.76Z" transform="translate(-277.5 -39.8)"/><path class="cls-1" d="M354,116.83a3.23,3.23,0,0,1-.14-1.52.29.29,0,0,1,.38-.14.59.59,0,0,1,.12.22A5,5,0,0,1,354,116.83Z" transform="translate(-277.5 -39.8)"/><path class="cls-1" d="M316.41,281.69a1,1,0,0,1-.84-.37A.6.6,0,0,1,316,281C316.58,281.25,316.58,281.25,316.41,281.69Z" transform="translate(-277.5 -39.8)"/><path class="cls-1" d="M341.52,159.57a.48.48,0,0,1-.56-.3c0-.35.28-.4.52-.45C341.76,159.1,341.75,159.33,341.52,159.57Z" transform="translate(-277.5 -39.8)"/><path class="cls-1" d="M423.48,331.19c-.72-.68-.72-.68-.7-1.09A1.18,1.18,0,0,1,423.48,331.19Z" transform="translate(-277.5 -39.8)"/><path class="cls-1" d="M317,46.72c-.29-.1-.45-.27-.39-.59.32-.24.5-.05.67.19C317.34,46.53,317.22,46.64,317,46.72Z" transform="translate(-277.5 -39.8)"/><path class="cls-1" d="M317.34,286.64a.28.28,0,0,1,.33.14.47.47,0,0,1-.34.51C317,287.07,317.16,286.85,317.34,286.64Z" transform="translate(-277.5 -39.8)"/><path class="cls-1" d="M378.19,386.91a.27.27,0,0,1-.34-.18.48.48,0,0,1,.35-.48C378.49,386.48,378.37,386.69,378.19,386.91Z" transform="translate(-277.5 -39.8)"/><path class="cls-1" d="M360.1,452.59a.49.49,0,0,1,.6-.11c-.13.42-.21.5-.45.44S360.08,452.73,360.1,452.59Z" transform="translate(-277.5 -39.8)"/><path class="cls-1" d="M363.82,445.6c0-.17,0-.25-.05-.34.38-.11.38-.11.64.28C364.26,445.69,364.08,445.62,363.82,445.6Z" transform="translate(-277.5 -39.8)"/><path class="cls-1" d="M426,335.66c0,.16-.13.23-.27.19a.24.24,0,0,1-.15-.31c0-.06.13-.11.2-.12S426,335.5,426,335.66Z" transform="translate(-277.5 -39.8)"/><path class="cls-1" d="M314.84,74.16a.19.19,0,0,1-.19.22.27.27,0,0,1-.22-.1.24.24,0,0,1,.1-.33C314.65,73.91,314.78,74,314.84,74.16Z" transform="translate(-277.5 -39.8)"/><path class="cls-1" d="M430.16,388.48c.06.12.09.15.09.19s.05.36-.14.44-.16-.06-.22-.13-.05-.31.09-.43Z" transform="translate(-277.5 -39.8)"/><path class="cls-1" d="M331.83,287.14c0-.09,0-.18,0-.27a.24.24,0,0,1,.26-.24c.16,0,.24.07.23.24a.25.25,0,0,1-.26.24h-.26Z" transform="translate(-277.5 -39.8)"/><path class="cls-1" d="M300.79,284.86c0,.09,0,.17,0,.26s-.09.24-.24.25-.24-.08-.23-.24a.23.23,0,0,1,.25-.23l.26,0Z" transform="translate(-277.5 -39.8)"/><path class="cls-1" d="M308.15,83l-.41.38C307.61,83,307.61,83,308.15,83Z" transform="translate(-277.5 -39.8)"/><path class="cls-1" d="M430.93,384.7l.37.41C430.93,385.24,430.93,385.24,430.93,384.7Z" transform="translate(-277.5 -39.8)"/><path class="cls-1" d="M407,302.91l.38.41C406.94,303.44,406.94,303.44,407,302.91Z" transform="translate(-277.5 -39.8)"/><path class="cls-1" d="M310,240.15c-.06,0-.11.11-.17.11s-.09-.08-.13-.12.06-.09.09-.08Z" transform="translate(-277.5 -39.8)"/><path class="cls-1" d="M390.9,325.9c0,.05.11.1.11.15a.51.51,0,0,1-.11.16s-.08-.06-.08-.09A1.19,1.19,0,0,1,390.9,325.9Z" transform="translate(-277.5 -39.8)"/><path class="cls-1" d="M334.76,102.51a.18.18,0,0,1,.3,0s0,.07,0,.08A.18.18,0,0,1,334.76,102.51Z" transform="translate(-277.5 -39.8)"/><path class="cls-1" d="M424.63,332.81c-.24-.09-.35-.22-.15-.45.16.13.12.31.13.47Z" transform="translate(-277.5 -39.8)"/><path class="cls-1" d="M284,415.59c.05.05.12.1.12.15s-.07.11-.11.17-.09-.07-.08-.09A1,1,0,0,1,284,415.59Z" transform="translate(-277.5 -39.8)"/><path class="cls-1" d="M359.45,150.32c0,.16,0,.34-.13.47-.2-.24-.07-.36.16-.45Z" transform="translate(-277.5 -39.8)"/><path class="cls-1" d="M430.71,386.25a.47.47,0,0,1-.18.12s-.09-.08-.13-.13.07-.08.09-.07Z" transform="translate(-277.5 -39.8)"/><path class="cls-1" d="M346.08,467.75c.1.1.13.21,0,.32a.11.11,0,0,1-.08,0A.19.19,0,0,1,346.08,467.75Z" transform="translate(-277.5 -39.8)"/><path class="cls-1" d="M294.27,125s0,.08-.08.09-.16-.14-.09-.25.06,0,.09-.06A1.43,1.43,0,0,0,294.27,125Z" transform="translate(-277.5 -39.8)"/><polygon class="cls-1" points="80.98 112.43 80.94 112.33 81.03 112.34 80.98 112.43"/><polygon class="cls-1" points="76.48 125.56 76.51 125.65 76.43 125.64 76.48 125.56"/><polygon class="cls-1" points="88.89 137.97 88.92 138.06 88.84 138.05 88.89 137.97"/><polygon class="cls-1" points="72.51 481.36 72.48 481.27 72.56 481.28 72.51 481.36"/><polygon class="cls-1" points="32.41 202.9 32.49 202.87 32.48 202.95 32.41 202.9"/><polygon class="cls-1" points="84.08 228.36 84.04 228.26 84.13 228.27 84.08 228.36"/><path class="cls-1" d="M308.68,92.78l-.11.21c-.16-.21.07-.14.13-.19Z" transform="translate(-277.5 -39.8)"/><path class="cls-1" d="M308.7,92.8l.12-.21c.16.21-.07.14-.14.19Z" transform="translate(-277.5 -39.8)"/><path class="cls-1" d="M334.92,91.67l.2.11c-.21.16-.13-.07-.18-.13Z" transform="translate(-277.5 -39.8)"/><polygon class="cls-1" points="44.61 233.03 44.64 233.12 44.55 233.11 44.61 233.03"/><polygon class="cls-1" points="37.26 241.61 37.22 241.52 37.31 241.53 37.26 241.61"/><polygon class="cls-1" points="144.17 290.01 144.2 290.09 144.12 290.08 144.17 290.01"/><path class="cls-1" d="M424.61,332.83l.21.11c-.21.16-.14-.07-.19-.13Z" transform="translate(-277.5 -39.8)"/><polygon class="cls-1" points="148.12 294.51 148.15 294.6 148.07 294.59 148.12 294.51"/><path class="cls-1" d="M423.76,337.34l.22.12c-.21.16-.14-.08-.2-.14Z" transform="translate(-277.5 -39.8)"/><path class="cls-1" d="M380.61,521l.21.11c-.21.15-.14-.07-.19-.14Z" transform="translate(-277.5 -39.8)"/><path class="cls-1" d="M325.78,529.86c0-.06-.11-.11-.11-.17s.08-.09.12-.14.08.07.07.09A.83.83,0,0,1,325.78,529.86Z" transform="translate(-277.5 -39.8)"/><path class="cls-1" d="M332.24,529.88a.2.2,0,0,1,0-.32.1.1,0,0,1,.09,0A.2.2,0,0,1,332.24,529.88Z" transform="translate(-277.5 -39.8)"/><path class="cls-1" d="M336.35,534.79l.11-.21c.16.2-.07.14-.13.19Z" transform="translate(-277.5 -39.8)"/><path class="cls-1" d="M380.91,524.9l-.2-.11c.2-.16.14.06.18.13Z" transform="translate(-277.5 -39.8)"/><path class="cls-1" d="M330.56,152.63c.45,0,.82-.13,1.19.1.05.51-.34.69-.66.93C330.4,153.4,330.4,153.4,330.56,152.63Z" transform="translate(-277.5 -39.8)"/><path class="cls-1" d="M330,153.24a.52.52,0,0,1,.05.6c-.29.23-.6.14-.91.12C329.2,153.42,329.67,153.46,330,153.24Z" transform="translate(-277.5 -39.8)"/><path class="cls-1" d="M325.07,145.55l0-.4a.48.48,0,0,1,.74,0l0,.26c-.22.24-.51.12-.78.13Z" transform="translate(-277.5 -39.8)"/></svg>